<svg width="80" height="80" viewBox="0 0 80 80" fill="none" xmlns="http://www.w3.org/2000/svg">
<g clip-path="url(#clip0_1_6567)">
<path d="M35 27.5C32.9318 27.5004 30.896 28.0139 29.0751 28.9946C27.2542 29.9753 25.7051 31.3925 24.5667 33.1191C23.4282 34.8457 22.7359 36.8278 22.5519 38.8878C22.3679 40.9478 22.6979 43.0213 23.5123 44.9223C24.3267 46.8234 25.6001 48.4927 27.2184 49.7806C28.8366 51.0685 30.7491 51.9347 32.7845 52.3017C34.8199 52.6686 36.9145 52.5248 38.8806 51.8831C40.8467 51.2414 42.6229 50.1219 44.05 48.625C44.3898 48.2684 44.7964 47.9823 45.2468 47.7829C45.6972 47.5836 46.1824 47.4749 46.6748 47.463C47.1672 47.4512 47.6571 47.5365 48.1165 47.7139C48.5759 47.8914 48.9959 48.1577 49.3525 48.4975C49.709 48.8373 49.9951 49.244 50.1945 49.6943C50.3938 50.1447 50.5025 50.6299 50.5144 51.1223C50.5262 51.6147 50.441 52.1046 50.2635 52.564C50.086 53.0235 49.8197 53.4434 49.48 53.8C46.7247 56.6907 43.1672 58.6903 39.2656 59.5415C35.3639 60.3927 31.2968 60.0564 27.588 58.5759C23.8791 57.0954 20.6984 54.5385 18.4554 51.2345C16.2125 47.9305 15.0099 44.0307 15.0027 40.0373C14.9955 36.0439 16.1839 32.1397 18.4149 28.8276C20.6459 25.5156 23.8174 22.9472 27.5208 21.4533C31.2243 19.9594 35.2902 19.6083 39.1949 20.4454C43.0996 21.2825 46.6643 23.2693 49.43 26.15C50.1195 26.8674 50.4958 27.8293 50.4762 28.8242C50.4565 29.8191 50.0424 30.7654 49.325 31.455C48.6075 32.1445 47.6456 32.5209 46.6507 32.5012C45.6558 32.4815 44.7095 32.0674 44.02 31.35C42.8554 30.131 41.4555 29.1612 39.905 28.4994C38.3545 27.8376 36.6858 27.4976 35 27.5ZM70 30C70.663 30 71.2989 30.2634 71.7677 30.7322C72.2366 31.201 72.5 31.8369 72.5 32.5V37.5H77.5C78.163 37.5 78.7989 37.7634 79.2677 38.2322C79.7366 38.701 80 39.3369 80 40C80 40.663 79.7366 41.2989 79.2677 41.7677C78.7989 42.2366 78.163 42.5 77.5 42.5H72.5V47.5C72.5 48.163 72.2366 48.7989 71.7677 49.2677C71.2989 49.7366 70.663 50 70 50C69.3369 50 68.701 49.7366 68.2322 49.2677C67.7633 48.7989 67.5 48.163 67.5 47.5V42.5H62.5C61.8369 42.5 61.201 42.2366 60.7322 41.7677C60.2633 41.2989 60 40.663 60 40C60 39.3369 60.2633 38.701 60.7322 38.2322C61.201 37.7634 61.8369 37.5 62.5 37.5H67.5V32.5C67.5 31.8369 67.7633 31.201 68.2322 30.7322C68.701 30.2634 69.3369 30 70 30Z" fill="white"/>
<path d="M57.5 30C58.163 30 58.7989 30.2634 59.2678 30.7322C59.7366 31.2011 60 31.837 60 32.5V37.5H65C65.663 37.5 66.2989 37.7634 66.7678 38.2322C67.2366 38.7011 67.5 39.337 67.5 40C67.5 40.663 67.2366 41.2989 66.7678 41.7678C66.2989 42.2366 65.663 42.5 65 42.5H60V47.5C60 48.163 59.7366 48.7989 59.2678 49.2678C58.7989 49.7366 58.163 50 57.5 50C56.837 50 56.2011 49.7366 55.7322 49.2678C55.2634 48.7989 55 48.163 55 47.5V42.5H50C49.337 42.5 48.7011 42.2366 48.2322 41.7678C47.7634 41.2989 47.5 40.663 47.5 40C47.5 39.337 47.7634 38.7011 48.2322 38.2322C48.7011 37.7634 49.337 37.5 50 37.5H55V32.5C55 31.837 55.2634 31.2011 55.7322 30.7322C56.2011 30.2634 56.837 30 57.5 30Z" fill="white"/>
<path d="M32.93 0.511111C33.5036 0.176382 34.1559 0 34.82 0C35.4841 0 36.1364 0.176382 36.71 0.511111L60.285 14.2611C61.1443 14.7624 61.7693 15.5845 62.0225 16.5465C62.2756 17.5086 62.1363 18.5318 61.635 19.3911C61.1337 20.2504 60.3117 20.8754 59.3496 21.1286C58.3875 21.3817 57.3643 21.2424 56.505 20.7411L34.82 8.09111L7.5 24.0311V55.9711L34.82 71.9111L56.505 59.2611C56.9308 59.0058 57.403 58.8376 57.8943 58.7662C58.3856 58.6949 58.8861 58.7217 59.3669 58.8453C59.8478 58.9689 60.2993 59.1867 60.6952 59.4862C61.0912 59.7856 61.4238 60.1607 61.6737 60.5896C61.9236 61.0186 62.0858 61.4929 62.151 61.985C62.2161 62.4772 62.1829 62.9774 62.0533 63.4566C61.9236 63.9358 61.7001 64.3845 61.3957 64.7767C61.0913 65.1688 60.7121 65.4967 60.28 65.7411L36.71 79.4911C36.1364 79.8258 35.4841 80.0022 34.82 80.0022C34.1559 80.0022 33.5036 79.8258 32.93 79.4911L1.86 61.3661C1.29383 61.0357 0.824158 60.5627 0.497801 59.9942C0.171444 59.4257 -0.000194077 58.7816 1.64684e-07 58.1261V21.8761C-0.000194077 21.2206 0.171444 20.5765 0.497801 20.008C0.824158 19.4395 1.29383 18.9665 1.86 18.6361L32.93 0.511111Z" fill="white"/>
</g>
<defs>
<clipPath id="clip0_1_6567">
<rect width="80" height="80" fill="white"/>
</clipPath>
</defs>
</svg>
