<svg width="80" height="80" viewBox="0 0 80 80" fill="none" xmlns="http://www.w3.org/2000/svg">
<g clip-path="url(#clip0_1_6564)">
<path d="M37.93 0.510013C38.5036 0.175284 39.1559 -0.00109863 39.82 -0.00109863C40.4841 -0.00109863 41.1364 0.175284 41.71 0.510013L72.78 18.635C73.3471 18.9648 73.8178 19.4375 74.145 20.006C74.4723 20.5746 74.6447 21.219 74.645 21.875V58.125C74.6447 58.781 74.4723 59.4254 74.145 59.994C73.8178 60.5625 73.3471 61.0353 72.78 61.365L41.71 79.49C41.1364 79.8247 40.4841 80.0011 39.82 80.0011C39.1559 80.0011 38.5036 79.8247 37.93 79.49L6.86 61.365C6.29383 61.0346 5.82416 60.5616 5.4978 59.9931C5.17144 59.4246 4.99981 58.7805 5 58.125V21.875C4.99981 21.2195 5.17144 20.5754 5.4978 20.0069C5.82416 19.4384 6.29383 18.9654 6.86 18.635L37.93 0.510013ZM39.82 71.91L67.145 55.97V24.03L39.82 8.09001L12.5 24.03V55.97L39.82 71.91Z" fill="white"/>
<path d="M40 27.5C37.9318 27.5004 35.896 28.0139 34.0751 28.9946C32.2542 29.9753 30.7051 31.3925 29.5667 33.1191C28.4282 34.8457 27.7359 36.8278 27.5519 38.8878C27.3679 40.9478 27.6979 43.0213 28.5123 44.9223C29.3267 46.8234 30.6001 48.4927 32.2184 49.7806C33.8366 51.0685 35.7492 51.9347 37.7845 52.3017C39.8199 52.6686 41.9145 52.5248 43.8806 51.8831C45.8467 51.2414 47.6229 50.1219 49.05 48.625C49.3898 48.2684 49.7964 47.9823 50.2468 47.7829C50.6972 47.5836 51.1824 47.4749 51.6748 47.463C52.1672 47.4512 52.6571 47.5365 53.1165 47.7139C53.5759 47.8914 53.9959 48.1577 54.3525 48.4975C54.709 48.8373 54.9951 49.244 55.1945 49.6943C55.3938 50.1447 55.5026 50.6299 55.5144 51.1223C55.5262 51.6147 55.441 52.1046 55.2635 52.564C55.086 53.0235 54.8198 53.4434 54.48 53.8C51.7247 56.6907 48.1672 58.6903 44.2656 59.5415C40.3639 60.3927 36.2968 60.0564 32.588 58.5759C28.8791 57.0954 25.6984 54.5385 23.4554 51.2345C21.2125 47.9305 20.0099 44.0307 20.0027 40.0373C19.9955 36.0439 21.1839 32.1397 23.4149 28.8276C25.6459 25.5156 28.8174 22.9472 32.5208 21.4533C36.2243 19.9594 40.2902 19.6083 44.1949 20.4454C48.0996 21.2825 51.6643 23.2693 54.43 26.15C55.1195 26.8674 55.4958 27.8293 55.4762 28.8242C55.4565 29.8191 55.0424 30.7654 54.325 31.455C53.6075 32.1445 52.6456 32.5209 51.6507 32.5012C50.6558 32.4815 49.7095 32.0674 49.02 31.35C47.8555 30.131 46.4555 29.1612 44.905 28.4994C43.3545 27.8376 41.6858 27.4976 40 27.5Z" fill="white"/>
</g>
<defs>
<clipPath id="clip0_1_6564">
<rect width="80" height="80" fill="white"/>
</clipPath>
</defs>
</svg>
