<svg width="1081" height="169" viewBox="0 0 1081 169" fill="none" xmlns="http://www.w3.org/2000/svg">
<g clip-path="url(#clip0_1_6563)">
<path d="M82.93 44.51C83.5036 44.1753 84.1559 43.9989 84.82 43.9989C85.4841 43.9989 86.1364 44.1753 86.71 44.51L117.78 62.635C118.347 62.9648 118.818 63.4375 119.145 64.006C119.472 64.5746 119.645 65.219 119.645 65.875V102.125C119.645 102.781 119.472 103.425 119.145 103.994C118.818 104.563 118.347 105.035 117.78 105.365L86.71 123.49C86.1364 123.825 85.4841 124.001 84.82 124.001C84.1559 124.001 83.5036 123.825 82.93 123.49L51.86 105.365C51.2938 105.035 50.8242 104.562 50.4978 103.993C50.1714 103.425 49.9998 102.781 50 102.125V65.875C49.9998 65.2195 50.1714 64.5754 50.4978 64.0069C50.8242 63.4384 51.2938 62.9654 51.86 62.635L82.93 44.51ZM84.82 115.91L112.145 99.97V68.03L84.82 52.09L57.5 68.03V99.97L84.82 115.91Z" fill="white"/>
<path d="M85 71.5C82.9318 71.5004 80.896 72.0139 79.0751 72.9946C77.2542 73.9753 75.7051 75.3925 74.5667 77.1191C73.4282 78.8457 72.7359 80.8278 72.5519 82.8878C72.3679 84.9478 72.6979 87.0213 73.5123 88.9223C74.3267 90.8234 75.6001 92.4927 77.2184 93.7806C78.8366 95.0685 80.7492 95.9347 82.7845 96.3017C84.8199 96.6686 86.9145 96.5248 88.8806 95.8831C90.8467 95.2414 92.6229 94.1219 94.05 92.625C94.3898 92.2684 94.7964 91.9823 95.2468 91.7829C95.6972 91.5836 96.1824 91.4749 96.6748 91.463C97.1672 91.4512 97.6571 91.5365 98.1165 91.7139C98.5759 91.8914 98.9959 92.1577 99.3525 92.4975C99.709 92.8373 99.9951 93.244 100.194 93.6943C100.394 94.1447 100.503 94.6299 100.514 95.1223C100.526 95.6147 100.441 96.1046 100.263 96.564C100.086 97.0235 99.8198 97.4434 99.48 97.8C96.7247 100.691 93.1672 102.69 89.2656 103.542C85.3639 104.393 81.2968 104.056 77.588 102.576C73.8791 101.095 70.6984 98.5385 68.4554 95.2345C66.2125 91.9305 65.0099 88.0307 65.0027 84.0373C64.9955 80.0439 66.1839 76.1397 68.4149 72.8276C70.6459 69.5156 73.8174 66.9472 77.5208 65.4533C81.2243 63.9594 85.2902 63.6083 89.1949 64.4454C93.0996 65.2825 96.6643 67.2693 99.43 70.15C100.12 70.8674 100.496 71.8293 100.476 72.8242C100.456 73.8191 100.042 74.7654 99.325 75.455C98.6075 76.1445 97.6456 76.5209 96.6507 76.5012C95.6558 76.4815 94.7095 76.0674 94.02 75.35C92.8555 74.131 91.4555 73.1612 89.905 72.4994C88.3545 71.8376 86.6858 71.4976 85 71.5Z" fill="white"/>
</g>
<g clip-path="url(#clip1_1_6563)">
<path d="M262 71.5C259.932 71.5004 257.896 72.0139 256.075 72.9946C254.254 73.9753 252.705 75.3925 251.567 77.1191C250.428 78.8457 249.736 80.8278 249.552 82.8878C249.368 84.9478 249.698 87.0213 250.512 88.9223C251.327 90.8234 252.6 92.4927 254.218 93.7806C255.837 95.0685 257.749 95.9347 259.785 96.3017C261.82 96.6686 263.914 96.5248 265.881 95.8831C267.847 95.2414 269.623 94.1219 271.05 92.625C271.39 92.2684 271.796 91.9823 272.247 91.7829C272.697 91.5836 273.182 91.4749 273.675 91.463C274.167 91.4512 274.657 91.5365 275.117 91.7139C275.576 91.8914 275.996 92.1577 276.352 92.4975C276.709 92.8373 276.995 93.244 277.194 93.6943C277.394 94.1447 277.503 94.6299 277.514 95.1223C277.526 95.6147 277.441 96.1046 277.263 96.564C277.086 97.0235 276.82 97.4434 276.48 97.8C273.725 100.691 270.167 102.69 266.266 103.542C262.364 104.393 258.297 104.056 254.588 102.576C250.879 101.095 247.698 98.5385 245.455 95.2345C243.212 91.9305 242.01 88.0307 242.003 84.0373C241.995 80.0439 243.184 76.1397 245.415 72.8276C247.646 69.5156 250.817 66.9472 254.521 65.4533C258.224 63.9594 262.29 63.6083 266.195 64.4454C270.1 65.2825 273.664 67.2693 276.43 70.15C277.12 70.8674 277.496 71.8293 277.476 72.8242C277.456 73.8191 277.042 74.7654 276.325 75.455C275.608 76.1445 274.646 76.5209 273.651 76.5012C272.656 76.4815 271.71 76.0674 271.02 75.35C269.855 74.131 268.456 73.1612 266.905 72.4994C265.355 71.8376 263.686 71.4976 262 71.5ZM297 74C297.663 74 298.299 74.2634 298.768 74.7322C299.237 75.201 299.5 75.8369 299.5 76.5V81.5H304.5C305.163 81.5 305.799 81.7634 306.268 82.2322C306.737 82.701 307 83.3369 307 84C307 84.663 306.737 85.2989 306.268 85.7677C305.799 86.2366 305.163 86.5 304.5 86.5H299.5V91.5C299.5 92.163 299.237 92.7989 298.768 93.2677C298.299 93.7366 297.663 94 297 94C296.337 94 295.701 93.7366 295.232 93.2677C294.763 92.7989 294.5 92.163 294.5 91.5V86.5H289.5C288.837 86.5 288.201 86.2366 287.732 85.7677C287.263 85.2989 287 84.663 287 84C287 83.3369 287.263 82.701 287.732 82.2322C288.201 81.7634 288.837 81.5 289.5 81.5H294.5V76.5C294.5 75.8369 294.763 75.201 295.232 74.7322C295.701 74.2634 296.337 74 297 74Z" fill="white"/>
<path d="M284.5 74C285.163 74 285.799 74.2634 286.268 74.7322C286.737 75.2011 287 75.837 287 76.5V81.5H292C292.663 81.5 293.299 81.7634 293.768 82.2322C294.237 82.7011 294.5 83.337 294.5 84C294.5 84.663 294.237 85.2989 293.768 85.7678C293.299 86.2366 292.663 86.5 292 86.5H287V91.5C287 92.163 286.737 92.7989 286.268 93.2678C285.799 93.7366 285.163 94 284.5 94C283.837 94 283.201 93.7366 282.732 93.2678C282.263 92.7989 282 92.163 282 91.5V86.5H277C276.337 86.5 275.701 86.2366 275.232 85.7678C274.763 85.2989 274.5 84.663 274.5 84C274.5 83.337 274.763 82.7011 275.232 82.2322C275.701 81.7634 276.337 81.5 277 81.5H282V76.5C282 75.837 282.263 75.2011 282.732 74.7322C283.201 74.2634 283.837 74 284.5 74Z" fill="white"/>
<path d="M259.93 44.5111C260.504 44.1764 261.156 44 261.82 44C262.484 44 263.136 44.1764 263.71 44.5111L287.285 58.2611C288.144 58.7624 288.769 59.5845 289.022 60.5465C289.276 61.5086 289.136 62.5318 288.635 63.3911C288.134 64.2504 287.312 64.8754 286.35 65.1286C285.388 65.3817 284.364 65.2424 283.505 64.7411L261.82 52.0911L234.5 68.0311V99.9711L261.82 115.911L283.505 103.261C283.931 103.006 284.403 102.838 284.894 102.766C285.386 102.695 285.886 102.722 286.367 102.845C286.848 102.969 287.299 103.187 287.695 103.486C288.091 103.786 288.424 104.161 288.674 104.59C288.924 105.019 289.086 105.493 289.151 105.985C289.216 106.477 289.183 106.977 289.053 107.457C288.924 107.936 288.7 108.385 288.396 108.777C288.091 109.169 287.712 109.497 287.28 109.741L263.71 123.491C263.136 123.826 262.484 124.002 261.82 124.002C261.156 124.002 260.504 123.826 259.93 123.491L228.86 105.366C228.294 105.036 227.824 104.563 227.498 103.994C227.171 103.426 227 102.782 227 102.126V65.8761C227 65.2206 227.171 64.5765 227.498 64.008C227.824 63.4395 228.294 62.9665 228.86 62.6361L259.93 44.5111Z" fill="white"/>
</g>
<path d="M638.078 43.375C642.459 53.7156 622.369 60.05 620.5 68.6688C618.791 76.5781 632.403 85.8563 632.416 85.8563C630.337 82.5844 628.825 79.825 626.75 74.7219C623.234 66.1031 648.172 58.3281 638.078 43.375ZM651.359 57.7313C651.359 57.7313 633.794 58.8406 632.903 70.3281C632.497 75.4438 637.541 78.1281 637.688 81.8531C637.812 84.8906 634.659 87.4156 634.659 87.4156C634.659 87.4156 640.312 86.3938 642.081 81.7531C644.034 76.6031 638.275 73.0875 638.859 68.9594C639.422 65.0188 651.359 57.7313 651.359 57.7313ZM655.656 84.1938C653.812 84.1094 651.737 84.7938 649.894 86.1469C653.531 85.3438 656.634 87.625 656.634 90.25C656.634 96.1344 648.234 101.675 648.234 101.675C648.234 101.675 661.222 100.222 661.222 90.5438C661.222 86.55 658.722 84.3406 655.656 84.1938ZM621.184 84.2938C616.653 84.45 607.609 85.1969 607.609 88.6875C607.609 93.5469 628.678 93.925 643.744 90.9344C643.744 90.9344 647.844 88.0781 648.919 87.0281C639.044 89.0781 616.497 89.3969 616.497 87.6125C616.497 85.9781 623.722 84.2938 623.722 84.2938C623.722 84.2938 622.697 84.2438 621.184 84.2938ZM619.816 93.2781C617.338 93.2781 613.663 95.2063 613.663 97.0844C613.663 100.869 632.319 103.775 646.087 98.2563L641.3 95.3281C631.963 98.3813 614.713 97.3656 619.816 93.2781ZM622.159 101.772C618.778 101.772 616.594 103.909 616.594 105.484C616.594 110.328 636.797 110.806 644.816 105.875L639.737 102.553C633.756 105.131 618.706 105.509 622.159 101.772ZM610.831 106.169C605.316 106.059 601.75 108.559 601.75 110.656C601.75 121.825 658.294 121.291 658.294 109.875C658.294 107.984 656.059 107.081 655.266 106.653C659.881 117.566 609.075 116.713 609.075 110.266C609.075 108.803 612.834 107.338 616.3 108.022L613.372 106.359C612.53 106.237 611.682 106.175 610.831 106.169ZM664.25 113.688C655.656 122 633.906 124.978 612.003 119.841C633.903 128.997 664.141 123.903 664.25 113.688Z" fill="white"/>
<path d="M483.333 50.6667L475 111.083L450 119.417L425 111.083L416.667 50.6667H483.333Z" stroke="white" stroke-width="6" stroke-linecap="round" stroke-linejoin="round"/>
<path d="M431.25 67.3334H443.75V100.667L435.417 96.5M468.75 67.3334H458.333C457.781 67.3334 457.251 67.5529 456.86 67.9436C456.469 68.3343 456.25 68.8642 456.25 69.4167V81.9167C456.25 82.4692 456.469 82.9991 456.86 83.3898C457.251 83.7806 457.781 84 458.333 84H464.263C464.561 84.0001 464.855 84.0641 465.127 84.1879C465.398 84.3117 465.64 84.4922 465.835 84.7174C466.031 84.9425 466.176 85.207 466.26 85.493C466.345 85.779 466.367 86.0798 466.325 86.375L464.583 98.5834L456.25 100.667" stroke="white" stroke-width="6" stroke-linecap="round" stroke-linejoin="round"/>
<path d="M1001.33 114C996.577 110.58 989.367 101.153 988 94C986.38 96.5666 982.997 100.667 981.333 100.667C976.337 97.7066 979.42 87.4233 981.333 80.6666C976.013 75.89 973.107 72.4733 973 67.3333C961.833 55.8666 971.52 49.7666 981.333 57.3333H984.667C1012.94 59 1006.07 84.2333 1014.67 95.6666C1022.32 97.4066 1026.88 103.18 1031.33 107.333C1024.38 106.667 1022.05 106.187 1019.67 107.333C1021.26 112.8 1026.74 114.667 1031.33 117.333M988 67.3333H988.033" stroke="white" stroke-width="6" stroke-linecap="round" stroke-linejoin="round"/>
<path d="M815 76.9125C818.862 76.9125 822.013 80.0625 822.013 84C822.013 87.75 818.862 90.9375 815 90.9375C811.138 90.9375 807.987 87.75 807.987 84C807.987 80.0625 811.138 76.9125 815 76.9125ZM797.637 114C800 115.425 805.175 113.25 811.138 107.625C809.188 105.413 807.275 103.013 805.475 100.5C802.453 100.211 799.449 99.7602 796.475 99.15C794.562 107.175 795.275 112.688 797.637 114ZM800.3 92.475L799.212 90.5625C798.8 91.65 798.388 92.7375 798.125 93.7875C799.138 94.0125 800.263 94.2 801.425 94.3875L800.3 92.475ZM824.825 89.625L827.863 84L824.825 78.375C823.7 76.3875 822.5 74.625 821.412 72.8625C819.388 72.75 817.25 72.75 815 72.75C812.75 72.75 810.612 72.75 808.588 72.8625C807.5 74.625 806.3 76.3875 805.175 78.375L802.137 84L805.175 89.625C806.3 91.6125 807.5 93.375 808.588 95.1375C810.612 95.25 812.75 95.25 815 95.25C817.25 95.25 819.388 95.25 821.412 95.1375C822.5 93.375 823.7 91.6125 824.825 89.625ZM815 64.425C814.287 65.25 813.537 66.1125 812.787 67.125H817.213C816.463 66.1125 815.713 65.25 815 64.425ZM815 103.575C815.713 102.75 816.463 101.888 817.213 100.875H812.787C813.537 101.888 814.287 102.75 815 103.575ZM832.325 54C830 52.575 824.825 54.75 818.862 60.375C820.812 62.5875 822.725 64.9875 824.525 67.5C827.6 67.8 830.638 68.25 833.525 68.85C835.438 60.825 834.725 55.3125 832.325 54ZM829.7 75.525L830.787 77.4375C831.2 76.35 831.612 75.2625 831.875 74.2125C830.862 73.9875 829.737 73.8 828.575 73.6125L829.7 75.525ZM835.138 49.0875C840.65 52.2375 841.25 60.525 838.925 70.2C848.45 73.0125 855.312 77.6625 855.312 84C855.312 90.3375 848.45 94.9875 838.925 97.8C841.25 107.475 840.65 115.763 835.138 118.913C829.663 122.063 822.2 118.463 815 111.6C807.8 118.463 800.337 122.063 794.825 118.913C789.35 115.763 788.75 107.475 791.075 97.8C781.55 94.9875 774.688 90.3375 774.688 84C774.688 77.6625 781.55 73.0125 791.075 70.2C788.75 60.525 789.35 52.2375 794.825 49.0875C800.337 45.9375 807.8 49.5375 815 56.4C822.2 49.5375 829.663 45.9375 835.138 49.0875ZM834.05 84C835.325 86.8125 836.45 89.625 837.387 92.475C845.262 90.1125 849.688 86.7375 849.688 84C849.688 81.2625 845.262 77.8875 837.387 75.525C836.45 78.375 835.325 81.1875 834.05 84ZM795.95 84C794.675 81.1875 793.55 78.375 792.613 75.525C784.738 77.8875 780.312 81.2625 780.312 84C780.312 86.7375 784.738 90.1125 792.613 92.475C793.55 89.625 794.675 86.8125 795.95 84ZM829.7 92.475L828.575 94.3875C829.737 94.2 830.862 94.0125 831.875 93.7875C831.612 92.7375 831.2 91.65 830.787 90.5625L829.7 92.475ZM818.862 107.625C824.825 113.25 830 115.425 832.325 114C834.725 112.688 835.438 107.175 833.525 99.15C830.638 99.75 827.6 100.2 824.525 100.5C822.725 103.013 820.812 105.413 818.862 107.625ZM800.3 75.525L801.425 73.6125C800.263 73.8 799.138 73.9875 798.125 74.2125C798.388 75.2625 798.8 76.35 799.212 77.4375L800.3 75.525ZM811.138 60.375C805.175 54.75 800 52.575 797.637 54C795.275 55.3125 794.562 60.825 796.475 68.85C799.449 68.2399 802.453 67.7892 805.475 67.5C807.275 64.9875 809.188 62.5875 811.138 60.375Z" fill="white"/>
<path d="M5 164L163 164" stroke="#3E4966" stroke-width="9" stroke-linecap="round"/>
<path d="M188 164L346 164" stroke="#3E4966" stroke-width="9" stroke-linecap="round"/>
<path d="M370 164L528 164" stroke="#3E4966" stroke-width="9" stroke-linecap="round"/>
<path d="M553 164L711 164" stroke="#3E4966" stroke-width="9" stroke-linecap="round"/>
<path d="M736 164L894 164" stroke="#3E4966" stroke-width="9" stroke-linecap="round"/>
<path d="M918 164L1076 164" stroke="#3E4966" stroke-width="9" stroke-linecap="round"/>
<path d="M5 164L81 164" stroke="#00AAFF" stroke-width="9" stroke-linecap="round"/>
<path d="M188 164L292 164" stroke="#00AAFF" stroke-width="9" stroke-linecap="round"/>
<path d="M370 164L496 164" stroke="#00AAFF" stroke-width="9" stroke-linecap="round"/>
<path d="M736 164L885 164" stroke="#00AAFF" stroke-width="9" stroke-linecap="round"/>
<path d="M553 164L662 164" stroke="#00AAFF" stroke-width="9" stroke-linecap="round"/>
<path d="M918 164L982 164" stroke="#00AAFF" stroke-width="9" stroke-linecap="round"/>
<path d="M79.688 12.416C79.688 11.328 79.9333 10.352 80.424 9.488C80.9147 8.61333 81.5813 7.93067 82.424 7.44C83.2773 6.94933 84.2213 6.704 85.256 6.704C86.472 6.704 87.5333 6.99733 88.44 7.584C89.3467 8.17067 90.008 9.00267 90.424 10.08H88.68C88.3707 9.408 87.9227 8.89067 87.336 8.528C86.76 8.16533 86.0667 7.984 85.256 7.984C84.4773 7.984 83.7787 8.16533 83.16 8.528C82.5413 8.89067 82.056 9.408 81.704 10.08C81.352 10.7413 81.176 11.52 81.176 12.416C81.176 13.3013 81.352 14.08 81.704 14.752C82.056 15.4133 82.5413 15.9253 83.16 16.288C83.7787 16.6507 84.4773 16.832 85.256 16.832C86.0667 16.832 86.76 16.656 87.336 16.304C87.9227 15.9413 88.3707 15.424 88.68 14.752H90.424C90.008 15.8187 89.3467 16.6453 88.44 17.232C87.5333 17.808 86.472 18.096 85.256 18.096C84.2213 18.096 83.2773 17.856 82.424 17.376C81.5813 16.8853 80.9147 16.208 80.424 15.344C79.9333 14.48 79.688 13.504 79.688 12.416Z" fill="white"/>
<path d="M250.688 12.416C250.688 11.328 250.933 10.352 251.424 9.488C251.915 8.61333 252.581 7.93067 253.424 7.44C254.277 6.94933 255.221 6.704 256.256 6.704C257.472 6.704 258.533 6.99733 259.44 7.584C260.347 8.17067 261.008 9.00267 261.424 10.08H259.68C259.371 9.408 258.923 8.89067 258.336 8.528C257.76 8.16533 257.067 7.984 256.256 7.984C255.477 7.984 254.779 8.16533 254.16 8.528C253.541 8.89067 253.056 9.408 252.704 10.08C252.352 10.7413 252.176 11.52 252.176 12.416C252.176 13.3013 252.352 14.08 252.704 14.752C253.056 15.4133 253.541 15.9253 254.16 16.288C254.779 16.6507 255.477 16.832 256.256 16.832C257.067 16.832 257.76 16.656 258.336 16.304C258.923 15.9413 259.371 15.424 259.68 14.752H261.424C261.008 15.8187 260.347 16.6453 259.44 17.232C258.533 17.808 257.472 18.096 256.256 18.096C255.221 18.096 254.277 17.856 253.424 17.376C252.581 16.8853 251.915 16.208 251.424 15.344C250.933 14.48 250.688 13.504 250.688 12.416ZM271.911 12.768H268.503V16.224H267.143V12.768H263.751V11.536H267.143V8.064H268.503V11.536H271.911V12.768ZM282.833 12.768H279.425V16.224H278.065V12.768H274.673V11.536H278.065V8.064H279.425V11.536H282.833V12.768Z" fill="white"/>
<path d="M412.848 6.848V15.088C412.848 16.0053 412.565 16.7413 412 17.296C411.435 17.84 410.688 18.112 409.76 18.112C408.821 18.112 408.069 17.8347 407.504 17.28C406.939 16.7147 406.656 15.9467 406.656 14.976H408.112C408.123 15.52 408.261 15.9627 408.528 16.304C408.805 16.6453 409.216 16.816 409.76 16.816C410.304 16.816 410.709 16.656 410.976 16.336C411.243 16.0053 411.376 15.5893 411.376 15.088V6.848H412.848ZM415.172 13.584C415.172 12.688 415.354 11.904 415.716 11.232C416.079 10.5493 416.575 10.0213 417.204 9.648C417.844 9.27467 418.554 9.088 419.332 9.088C420.1 9.088 420.767 9.25333 421.332 9.584C421.898 9.91467 422.319 10.3307 422.596 10.832V9.232H424.068V18H422.596V16.368C422.308 16.88 421.876 17.3067 421.3 17.648C420.735 17.9787 420.074 18.144 419.316 18.144C418.538 18.144 417.834 17.952 417.204 17.568C416.575 17.184 416.079 16.6453 415.716 15.952C415.354 15.2587 415.172 14.4693 415.172 13.584ZM422.596 13.6C422.596 12.9387 422.463 12.3627 422.196 11.872C421.93 11.3813 421.567 11.008 421.108 10.752C420.66 10.4853 420.164 10.352 419.62 10.352C419.076 10.352 418.58 10.48 418.132 10.736C417.684 10.992 417.327 11.3653 417.06 11.856C416.794 12.3467 416.66 12.9227 416.66 13.584C416.66 14.256 416.794 14.8427 417.06 15.344C417.327 15.8347 417.684 16.2133 418.132 16.48C418.58 16.736 419.076 16.864 419.62 16.864C420.164 16.864 420.66 16.736 421.108 16.48C421.567 16.2133 421.93 15.8347 422.196 15.344C422.463 14.8427 422.596 14.2613 422.596 13.6ZM429.793 16.656L432.513 9.232H434.065L430.625 18H428.929L425.489 9.232H427.057L429.793 16.656ZM434.954 13.584C434.954 12.688 435.135 11.904 435.498 11.232C435.86 10.5493 436.356 10.0213 436.986 9.648C437.626 9.27467 438.335 9.088 439.114 9.088C439.882 9.088 440.548 9.25333 441.114 9.584C441.679 9.91467 442.1 10.3307 442.378 10.832V9.232H443.85V18H442.378V16.368C442.09 16.88 441.658 17.3067 441.082 17.648C440.516 17.9787 439.855 18.144 439.098 18.144C438.319 18.144 437.615 17.952 436.986 17.568C436.356 17.184 435.86 16.6453 435.498 15.952C435.135 15.2587 434.954 14.4693 434.954 13.584ZM442.378 13.6C442.378 12.9387 442.244 12.3627 441.978 11.872C441.711 11.3813 441.348 11.008 440.89 10.752C440.442 10.4853 439.946 10.352 439.402 10.352C438.858 10.352 438.362 10.48 437.914 10.736C437.466 10.992 437.108 11.3653 436.842 11.856C436.575 12.3467 436.442 12.9227 436.442 13.584C436.442 14.256 436.575 14.8427 436.842 15.344C437.108 15.8347 437.466 16.2133 437.914 16.48C438.362 16.736 438.858 16.864 439.402 16.864C439.946 16.864 440.442 16.736 440.89 16.48C441.348 16.2133 441.711 15.8347 441.978 15.344C442.244 14.8427 442.378 14.2613 442.378 13.6ZM454.112 18.112C453.376 18.112 452.714 17.984 452.128 17.728C451.552 17.4613 451.098 17.0987 450.768 16.64C450.437 16.1707 450.266 15.632 450.256 15.024H451.808C451.861 15.5467 452.074 15.9893 452.448 16.352C452.832 16.704 453.386 16.88 454.112 16.88C454.805 16.88 455.349 16.7093 455.744 16.368C456.149 16.016 456.352 15.568 456.352 15.024C456.352 14.5973 456.234 14.2507 456 13.984C455.765 13.7173 455.472 13.5147 455.12 13.376C454.768 13.2373 454.293 13.088 453.696 12.928C452.96 12.736 452.368 12.544 451.92 12.352C451.482 12.16 451.104 11.8613 450.784 11.456C450.474 11.04 450.32 10.4853 450.32 9.792C450.32 9.184 450.474 8.64533 450.784 8.176C451.093 7.70667 451.525 7.344 452.08 7.088C452.645 6.832 453.29 6.704 454.016 6.704C455.061 6.704 455.914 6.96533 456.576 7.488C457.248 8.01067 457.626 8.704 457.712 9.568H456.112C456.058 9.14133 455.834 8.768 455.44 8.448C455.045 8.11733 454.522 7.952 453.872 7.952C453.264 7.952 452.768 8.112 452.384 8.432C452 8.74133 451.808 9.17867 451.808 9.744C451.808 10.1493 451.92 10.48 452.144 10.736C452.378 10.992 452.661 11.1893 452.992 11.328C453.333 11.456 453.808 11.6053 454.416 11.776C455.152 11.9787 455.744 12.1813 456.192 12.384C456.64 12.576 457.024 12.88 457.344 13.296C457.664 13.7013 457.824 14.256 457.824 14.96C457.824 15.504 457.68 16.016 457.392 16.496C457.104 16.976 456.677 17.3653 456.112 17.664C455.546 17.9627 454.88 18.112 454.112 18.112ZM459.422 13.6C459.422 12.6933 459.604 11.904 459.966 11.232C460.329 10.5493 460.83 10.0213 461.47 9.648C462.121 9.27467 462.862 9.088 463.694 9.088C464.772 9.088 465.657 9.34933 466.35 9.872C467.054 10.3947 467.518 11.12 467.742 12.048H466.174C466.025 11.5147 465.732 11.0933 465.294 10.784C464.868 10.4747 464.334 10.32 463.694 10.32C462.862 10.32 462.19 10.608 461.678 11.184C461.166 11.7493 460.91 12.5547 460.91 13.6C460.91 14.656 461.166 15.472 461.678 16.048C462.19 16.624 462.862 16.912 463.694 16.912C464.334 16.912 464.868 16.7627 465.294 16.464C465.721 16.1653 466.014 15.7387 466.174 15.184H467.742C467.508 16.08 467.038 16.8 466.334 17.344C465.63 17.8773 464.75 18.144 463.694 18.144C462.862 18.144 462.121 17.9573 461.47 17.584C460.83 17.2107 460.329 16.6827 459.966 16C459.604 15.3173 459.422 14.5173 459.422 13.6ZM471.141 10.656C471.397 10.1547 471.76 9.76533 472.229 9.488C472.709 9.21067 473.29 9.072 473.973 9.072V10.576H473.589C471.957 10.576 471.141 11.4613 471.141 13.232V18H469.685V9.232H471.141V10.656ZM476.406 7.808C476.129 7.808 475.894 7.712 475.702 7.52C475.51 7.328 475.414 7.09333 475.414 6.816C475.414 6.53867 475.51 6.304 475.702 6.112C475.894 5.92 476.129 5.824 476.406 5.824C476.673 5.824 476.897 5.92 477.078 6.112C477.27 6.304 477.366 6.53867 477.366 6.816C477.366 7.09333 477.27 7.328 477.078 7.52C476.897 7.712 476.673 7.808 476.406 7.808ZM477.11 9.232V18H475.654V9.232H477.11ZM481.047 10.848C481.335 10.3467 481.762 9.93067 482.327 9.6C482.903 9.25867 483.57 9.088 484.327 9.088C485.106 9.088 485.81 9.27467 486.439 9.648C487.079 10.0213 487.581 10.5493 487.943 11.232C488.306 11.904 488.487 12.688 488.487 13.584C488.487 14.4693 488.306 15.2587 487.943 15.952C487.581 16.6453 487.079 17.184 486.439 17.568C485.81 17.952 485.106 18.144 484.327 18.144C483.581 18.144 482.919 17.9787 482.343 17.648C481.778 17.3067 481.346 16.8853 481.047 16.384V22.16H479.591V9.232H481.047V10.848ZM486.999 13.584C486.999 12.9227 486.866 12.3467 486.599 11.856C486.333 11.3653 485.97 10.992 485.511 10.736C485.063 10.48 484.567 10.352 484.023 10.352C483.49 10.352 482.994 10.4853 482.535 10.752C482.087 11.008 481.725 11.3867 481.447 11.888C481.181 12.3787 481.047 12.9493 481.047 13.6C481.047 14.2613 481.181 14.8427 481.447 15.344C481.725 15.8347 482.087 16.2133 482.535 16.48C482.994 16.736 483.49 16.864 484.023 16.864C484.567 16.864 485.063 16.736 485.511 16.48C485.97 16.2133 486.333 15.8347 486.599 15.344C486.866 14.8427 486.999 14.256 486.999 13.584ZM492.18 10.432V15.6C492.18 16.0267 492.271 16.3307 492.452 16.512C492.633 16.6827 492.948 16.768 493.396 16.768H494.468V18H493.156C492.345 18 491.737 17.8133 491.332 17.44C490.927 17.0667 490.724 16.4533 490.724 15.6V10.432H489.588V9.232H490.724V7.024H492.18V9.232H494.468V10.432H492.18Z" fill="white"/>
<path d="M619.848 6.848V15.088C619.848 16.0053 619.565 16.7413 619 17.296C618.435 17.84 617.688 18.112 616.76 18.112C615.821 18.112 615.069 17.8347 614.504 17.28C613.939 16.7147 613.656 15.9467 613.656 14.976H615.112C615.123 15.52 615.261 15.9627 615.528 16.304C615.805 16.6453 616.216 16.816 616.76 16.816C617.304 16.816 617.709 16.656 617.976 16.336C618.243 16.0053 618.376 15.5893 618.376 15.088V6.848H619.848ZM622.172 13.584C622.172 12.688 622.354 11.904 622.716 11.232C623.079 10.5493 623.575 10.0213 624.204 9.648C624.844 9.27467 625.554 9.088 626.332 9.088C627.1 9.088 627.767 9.25333 628.332 9.584C628.898 9.91467 629.319 10.3307 629.596 10.832V9.232H631.068V18H629.596V16.368C629.308 16.88 628.876 17.3067 628.3 17.648C627.735 17.9787 627.074 18.144 626.316 18.144C625.538 18.144 624.834 17.952 624.204 17.568C623.575 17.184 623.079 16.6453 622.716 15.952C622.354 15.2587 622.172 14.4693 622.172 13.584ZM629.596 13.6C629.596 12.9387 629.463 12.3627 629.196 11.872C628.93 11.3813 628.567 11.008 628.108 10.752C627.66 10.4853 627.164 10.352 626.62 10.352C626.076 10.352 625.58 10.48 625.132 10.736C624.684 10.992 624.327 11.3653 624.06 11.856C623.794 12.3467 623.66 12.9227 623.66 13.584C623.66 14.256 623.794 14.8427 624.06 15.344C624.327 15.8347 624.684 16.2133 625.132 16.48C625.58 16.736 626.076 16.864 626.62 16.864C627.164 16.864 627.66 16.736 628.108 16.48C628.567 16.2133 628.93 15.8347 629.196 15.344C629.463 14.8427 629.596 14.2613 629.596 13.6ZM636.793 16.656L639.513 9.232H641.065L637.625 18H635.929L632.489 9.232H634.057L636.793 16.656ZM641.954 13.584C641.954 12.688 642.135 11.904 642.498 11.232C642.86 10.5493 643.356 10.0213 643.986 9.648C644.626 9.27467 645.335 9.088 646.114 9.088C646.882 9.088 647.548 9.25333 648.114 9.584C648.679 9.91467 649.1 10.3307 649.378 10.832V9.232H650.85V18H649.378V16.368C649.09 16.88 648.658 17.3067 648.082 17.648C647.516 17.9787 646.855 18.144 646.098 18.144C645.319 18.144 644.615 17.952 643.986 17.568C643.356 17.184 642.86 16.6453 642.498 15.952C642.135 15.2587 641.954 14.4693 641.954 13.584ZM649.378 13.6C649.378 12.9387 649.244 12.3627 648.978 11.872C648.711 11.3813 648.348 11.008 647.89 10.752C647.442 10.4853 646.946 10.352 646.402 10.352C645.858 10.352 645.362 10.48 644.914 10.736C644.466 10.992 644.108 11.3653 643.842 11.856C643.575 12.3467 643.442 12.9227 643.442 13.584C643.442 14.256 643.575 14.8427 643.842 15.344C644.108 15.8347 644.466 16.2133 644.914 16.48C645.362 16.736 645.858 16.864 646.402 16.864C646.946 16.864 647.442 16.736 647.89 16.48C648.348 16.2133 648.711 15.8347 648.978 15.344C649.244 14.8427 649.378 14.2613 649.378 13.6Z" fill="white"/>
<path d="M799.104 18L796.448 13.44H794.688V18H793.232V6.848H796.832C797.675 6.848 798.384 6.992 798.96 7.28C799.547 7.568 799.984 7.95733 800.272 8.448C800.56 8.93867 800.704 9.49867 800.704 10.128C800.704 10.896 800.48 11.5733 800.032 12.16C799.595 12.7467 798.933 13.136 798.048 13.328L800.848 18H799.104ZM794.688 12.272H796.832C797.621 12.272 798.213 12.08 798.608 11.696C799.003 11.3013 799.2 10.7787 799.2 10.128C799.2 9.46667 799.003 8.95467 798.608 8.592C798.224 8.22933 797.632 8.048 796.832 8.048H794.688V12.272ZM810.966 13.28C810.966 13.5573 810.95 13.8507 810.918 14.16H803.91C803.964 15.024 804.257 15.7013 804.79 16.192C805.334 16.672 805.99 16.912 806.758 16.912C807.388 16.912 807.91 16.768 808.326 16.48C808.753 16.1813 809.052 15.7867 809.222 15.296H810.79C810.556 16.1387 810.086 16.8267 809.382 17.36C808.678 17.8827 807.804 18.144 806.758 18.144C805.926 18.144 805.18 17.9573 804.518 17.584C803.868 17.2107 803.356 16.6827 802.982 16C802.609 15.3067 802.422 14.5067 802.422 13.6C802.422 12.6933 802.604 11.8987 802.966 11.216C803.329 10.5333 803.836 10.0107 804.486 9.648C805.148 9.27467 805.905 9.088 806.758 9.088C807.59 9.088 808.326 9.26933 808.966 9.632C809.606 9.99467 810.097 10.496 810.438 11.136C810.79 11.7653 810.966 12.48 810.966 13.28ZM809.462 12.976C809.462 12.4213 809.34 11.9467 809.094 11.552C808.849 11.1467 808.513 10.8427 808.086 10.64C807.67 10.4267 807.206 10.32 806.694 10.32C805.958 10.32 805.329 10.5547 804.806 11.024C804.294 11.4933 804.001 12.144 803.926 12.976H809.462ZM812.344 13.584C812.344 12.688 812.526 11.904 812.888 11.232C813.251 10.5493 813.747 10.0213 814.376 9.648C815.016 9.27467 815.726 9.088 816.504 9.088C817.272 9.088 817.939 9.25333 818.504 9.584C819.07 9.91467 819.491 10.3307 819.768 10.832V9.232H821.24V18H819.768V16.368C819.48 16.88 819.048 17.3067 818.472 17.648C817.907 17.9787 817.246 18.144 816.488 18.144C815.71 18.144 815.006 17.952 814.376 17.568C813.747 17.184 813.251 16.6453 812.888 15.952C812.526 15.2587 812.344 14.4693 812.344 13.584ZM819.768 13.6C819.768 12.9387 819.635 12.3627 819.368 11.872C819.102 11.3813 818.739 11.008 818.28 10.752C817.832 10.4853 817.336 10.352 816.792 10.352C816.248 10.352 815.752 10.48 815.304 10.736C814.856 10.992 814.499 11.3653 814.232 11.856C813.966 12.3467 813.832 12.9227 813.832 13.584C813.832 14.256 813.966 14.8427 814.232 15.344C814.499 15.8347 814.856 16.2133 815.304 16.48C815.752 16.736 816.248 16.864 816.792 16.864C817.336 16.864 817.832 16.736 818.28 16.48C818.739 16.2133 819.102 15.8347 819.368 15.344C819.635 14.8427 819.768 14.2613 819.768 13.6ZM823.157 13.6C823.157 12.6933 823.338 11.904 823.701 11.232C824.063 10.5493 824.565 10.0213 825.205 9.648C825.855 9.27467 826.597 9.088 827.429 9.088C828.506 9.088 829.391 9.34933 830.085 9.872C830.789 10.3947 831.253 11.12 831.477 12.048H829.909C829.759 11.5147 829.466 11.0933 829.029 10.784C828.602 10.4747 828.069 10.32 827.429 10.32C826.597 10.32 825.925 10.608 825.413 11.184C824.901 11.7493 824.645 12.5547 824.645 13.6C824.645 14.656 824.901 15.472 825.413 16.048C825.925 16.624 826.597 16.912 827.429 16.912C828.069 16.912 828.602 16.7627 829.029 16.464C829.455 16.1653 829.749 15.7387 829.909 15.184H831.477C831.242 16.08 830.773 16.8 830.069 17.344C829.365 17.8773 828.485 18.144 827.429 18.144C826.597 18.144 825.855 17.9573 825.205 17.584C824.565 17.2107 824.063 16.6827 823.701 16C823.338 15.3173 823.157 14.5173 823.157 13.6ZM835.196 10.432V15.6C835.196 16.0267 835.286 16.3307 835.468 16.512C835.649 16.6827 835.964 16.768 836.411 16.768H837.484V18H836.172C835.361 18 834.753 17.8133 834.348 17.44C833.942 17.0667 833.74 16.4533 833.74 15.6V10.432H832.604V9.232H833.74V7.024H835.196V9.232H837.484V10.432H835.196Z" fill="white"/>
<path d="M984.544 6.928V18H983.088V9.744L979.408 18H978.384L974.688 9.728V18H973.232V6.928H974.8L978.896 16.08L982.992 6.928H984.544ZM994.565 9.232L989.285 22.128H987.781L989.509 17.904L985.973 9.232H987.589L990.341 16.336L993.061 9.232H994.565ZM1003.83 18.112C1003.09 18.112 1002.43 17.984 1001.85 17.728C1001.27 17.4613 1000.82 17.0987 1000.49 16.64C1000.16 16.1707 999.985 15.632 999.975 15.024H1001.53C1001.58 15.5467 1001.79 15.9893 1002.17 16.352C1002.55 16.704 1003.11 16.88 1003.83 16.88C1004.52 16.88 1005.07 16.7093 1005.46 16.368C1005.87 16.016 1006.07 15.568 1006.07 15.024C1006.07 14.5973 1005.95 14.2507 1005.72 13.984C1005.48 13.7173 1005.19 13.5147 1004.84 13.376C1004.49 13.2373 1004.01 13.088 1003.41 12.928C1002.68 12.736 1002.09 12.544 1001.64 12.352C1001.2 12.16 1000.82 11.8613 1000.5 11.456C1000.19 11.04 1000.04 10.4853 1000.04 9.792C1000.04 9.184 1000.19 8.64533 1000.5 8.176C1000.81 7.70667 1001.24 7.344 1001.8 7.088C1002.36 6.832 1003.01 6.704 1003.73 6.704C1004.78 6.704 1005.63 6.96533 1006.29 7.488C1006.97 8.01067 1007.35 8.704 1007.43 9.568H1005.83C1005.78 9.14133 1005.55 8.768 1005.16 8.448C1004.76 8.11733 1004.24 7.952 1003.59 7.952C1002.98 7.952 1002.49 8.112 1002.1 8.432C1001.72 8.74133 1001.53 9.17867 1001.53 9.744C1001.53 10.1493 1001.64 10.48 1001.86 10.736C1002.1 10.992 1002.38 11.1893 1002.71 11.328C1003.05 11.456 1003.53 11.6053 1004.13 11.776C1004.87 11.9787 1005.46 12.1813 1005.91 12.384C1006.36 12.576 1006.74 12.88 1007.06 13.296C1007.38 13.7013 1007.54 14.256 1007.54 14.96C1007.54 15.504 1007.4 16.016 1007.11 16.496C1006.82 16.976 1006.4 17.3653 1005.83 17.664C1005.27 17.9627 1004.6 18.112 1003.83 18.112ZM1009.14 13.584C1009.14 12.688 1009.32 11.904 1009.69 11.232C1010.05 10.5493 1010.54 10.0213 1011.17 9.648C1011.81 9.27467 1012.53 9.088 1013.32 9.088C1014.07 9.088 1014.74 9.25867 1015.3 9.6C1015.88 9.93067 1016.3 10.3413 1016.57 10.832V9.232H1018.04V22.16H1016.57V16.384C1016.29 16.8747 1015.86 17.2907 1015.29 17.632C1014.71 17.9733 1014.04 18.144 1013.27 18.144C1012.5 18.144 1011.8 17.952 1011.17 17.568C1010.54 17.184 1010.05 16.6453 1009.69 15.952C1009.32 15.2587 1009.14 14.4693 1009.14 13.584ZM1016.57 13.6C1016.57 12.9387 1016.43 12.3627 1016.17 11.872C1015.9 11.3813 1015.54 11.008 1015.08 10.752C1014.63 10.4853 1014.13 10.352 1013.59 10.352C1013.05 10.352 1012.55 10.48 1012.1 10.736C1011.65 10.992 1011.3 11.3653 1011.03 11.856C1010.76 12.3467 1010.63 12.9227 1010.63 13.584C1010.63 14.256 1010.76 14.8427 1011.03 15.344C1011.3 15.8347 1011.65 16.2133 1012.1 16.48C1012.55 16.736 1013.05 16.864 1013.59 16.864C1014.13 16.864 1014.63 16.736 1015.08 16.48C1015.54 16.2133 1015.9 15.8347 1016.17 15.344C1016.43 14.8427 1016.57 14.2613 1016.57 13.6ZM1021.95 6.16V18H1020.5V6.16H1021.95Z" fill="white"/>
<defs>
<clipPath id="clip0_1_6563">
<rect width="80" height="80" fill="white" transform="translate(45 44)"/>
</clipPath>
<clipPath id="clip1_1_6563">
<rect width="80" height="80" fill="white" transform="translate(227 44)"/>
</clipPath>
</defs>
</svg>
