<svg width="100" height="100" viewBox="0 0 100 100" fill="none" xmlns="http://www.w3.org/2000/svg">
<path d="M55.0781 9.375C59.4594 19.7156 39.3687 26.05 37.5 34.6688C35.7906 42.5781 49.4031 51.8563 49.4156 51.8563C47.3375 48.5844 45.825 45.825 43.75 40.7219C40.2344 32.1031 65.1719 24.3281 55.0781 9.375ZM68.3594 23.7313C68.3594 23.7313 50.7938 24.8406 49.9031 36.3281C49.4969 41.4438 54.5406 44.1281 54.6875 47.8531C54.8125 50.8906 51.6594 53.4156 51.6594 53.4156C51.6594 53.4156 57.3125 52.3938 59.0812 47.7531C61.0344 42.6031 55.275 39.0875 55.8594 34.9594C56.4219 31.0188 68.3594 23.7313 68.3594 23.7313ZM72.6562 50.1938C70.8125 50.1094 68.7375 50.7938 66.8937 52.1469C70.5312 51.3438 73.6344 53.625 73.6344 56.25C73.6344 62.1344 65.2344 67.675 65.2344 67.675C65.2344 67.675 78.2219 66.2219 78.2219 56.5438C78.2219 52.55 75.7219 50.3406 72.6562 50.1938ZM38.1844 50.2938C33.6531 50.45 24.6094 51.1969 24.6094 54.6875C24.6094 59.5469 45.6781 59.925 60.7437 56.9344C60.7437 56.9344 64.8438 54.0781 65.9188 53.0281C56.0438 55.0781 33.4969 55.3969 33.4969 53.6125C33.4969 51.9781 40.7219 50.2938 40.7219 50.2938C40.7219 50.2938 39.6969 50.2438 38.1844 50.2938ZM36.8156 59.2781C34.3375 59.2781 30.6625 61.2063 30.6625 63.0844C30.6625 66.8688 49.3187 69.775 63.0875 64.2563L58.3 61.3281C48.9625 64.3813 31.7125 63.3656 36.8156 59.2781ZM39.1594 67.7719C35.7781 67.7719 33.5938 69.9094 33.5938 71.4844C33.5938 76.3281 53.7969 76.8063 61.8156 71.875L56.7375 68.5531C50.7562 71.1313 35.7063 71.5094 39.1594 67.7719ZM27.8313 72.1688C22.3156 72.0594 18.75 74.5594 18.75 76.6563C18.75 87.825 75.2938 87.2906 75.2938 75.875C75.2938 73.9844 73.0594 73.0813 72.2656 72.6531C76.8812 83.5656 26.075 82.7125 26.075 76.2656C26.075 74.8031 29.8344 73.3375 33.3 74.0219L30.3719 72.3594C29.5304 72.2369 28.6816 72.1753 27.8313 72.1688ZM81.25 79.6875C72.6562 88 50.9062 90.9781 29.0031 85.8406C50.9031 94.9969 81.1406 89.9031 81.25 79.6875Z" fill="white"/>
</svg>
