<svg width="100" height="100" viewBox="0 0 100 100" fill="none" xmlns="http://www.w3.org/2000/svg">
<path d="M83.3334 16.6667L75.0001 77.0834L50.0001 85.4167L25.0001 77.0834L16.6667 16.6667H83.3334Z" stroke="white" stroke-width="6" stroke-linecap="round" stroke-linejoin="round"/>
<path d="M31.25 33.3334H43.75V66.6667L35.4167 62.5M68.75 33.3334H58.3333C57.7808 33.3334 57.2509 33.5529 56.8602 33.9436C56.4695 34.3343 56.25 34.8642 56.25 35.4167V47.9167C56.25 48.4692 56.4695 48.9991 56.8602 49.3898C57.2509 49.7806 57.7808 50 58.3333 50H64.2625C64.5607 50.0001 64.8554 50.0641 65.1267 50.1879C65.3981 50.3117 65.6396 50.4922 65.8352 50.7174C66.0307 50.9425 66.1756 51.207 66.2601 51.493C66.3446 51.779 66.3667 52.0798 66.325 52.375L64.5833 64.5834L56.25 66.6667" stroke="white" stroke-width="6" stroke-linecap="round" stroke-linejoin="round"/>
</svg>
