<svg width="80" height="80" viewBox="0 0 80 80" fill="none" xmlns="http://www.w3.org/2000/svg">
<path d="M43.3334 70C38.5767 66.58 31.3667 57.1533 30 50C28.38 52.5666 24.9967 56.6666 23.3334 56.6666C18.3367 53.7066 21.42 43.4233 23.3334 36.6666C18.0134 31.89 15.1067 28.4733 15 23.3333C3.83337 11.8666 13.52 5.76664 23.3334 13.3333H26.6667C54.94 15 48.07 40.2333 56.6667 51.6666C64.3167 53.4066 68.8834 59.18 73.3334 63.3333C66.38 62.6666 64.0534 62.1866 61.6667 63.3333C63.26 68.8 68.7434 70.6666 73.3334 73.3333M30 23.3333H30.0334" stroke="white" stroke-width="6" stroke-linecap="round" stroke-linejoin="round"/>
</svg>
