<svg width="458" height="341" viewBox="0 0 458 341" fill="none" xmlns="http://www.w3.org/2000/svg">
<path d="M228.506 340.529C326.381 340.529 405.726 335.896 405.726 330.182C405.726 324.468 326.381 319.835 228.506 319.835C130.63 319.835 51.2856 324.468 51.2856 330.182C51.2856 335.896 130.63 340.529 228.506 340.529Z" fill="#F5F5F5"/>
<path d="M375.161 301.372C375.298 300.458 378.497 278.366 372.089 270.743C371.452 269.939 370.644 269.288 369.724 268.834C368.804 268.38 367.795 268.136 366.77 268.12C353.827 267.818 352.063 278.174 352.045 278.311L353.571 278.549C353.626 278.174 355.162 269.408 366.733 269.664C367.539 269.676 368.333 269.867 369.056 270.224C369.778 270.582 370.412 271.096 370.91 271.73C376.87 278.832 373.652 300.915 373.652 301.143L375.161 301.372Z" fill="#ECEFF1"/>
<path d="M375.937 300.366L377.482 300.311C377.482 300.11 376.97 279.974 386.887 275.815C396.613 271.748 400.991 280.12 401.164 280.477L402.545 279.782C402.499 279.682 397.362 269.728 386.293 274.398C375.398 278.959 375.91 299.488 375.937 300.366Z" fill="#ECEFF1"/>
<path d="M375.892 301.947C375.892 301.628 375.993 269.783 382.199 260.469C388.158 251.521 397.737 255.734 398.185 255.899L398.816 254.491C398.706 254.446 387.61 249.547 380.91 259.592C374.448 269.289 374.356 300.595 374.356 301.929L375.892 301.947Z" fill="#ECEFF1"/>
<path d="M364.915 268.887C364.915 268.887 370.563 270.971 368.881 275.88C367.2 280.788 349.349 288.886 349.349 288.886C349.349 288.886 341.863 282.031 348.736 270.88C355.61 259.729 364.759 265.368 364.915 268.887Z" fill="#ECEFF1"/>
<path d="M382.473 258.787C382.473 258.787 378.47 258.358 378.817 255.917C379.164 253.477 394.41 247.188 403.413 257.352C403.413 257.352 397.646 267.26 389.31 267.407C380.974 267.553 382.473 258.787 382.473 258.787Z" fill="#ECEFF1"/>
<path d="M386.632 275.121C386.632 275.121 383.89 272.891 386.851 271.803C389.813 270.715 404.492 271.017 404.638 285.513C404.638 285.513 387.573 288.356 385.444 282.826C383.314 277.296 386.632 275.121 386.632 275.121Z" fill="#ECEFF1"/>
<path opacity="0.2" d="M364.915 268.887C364.915 268.887 370.563 270.971 368.881 275.88C367.2 280.788 349.349 288.886 349.349 288.886C349.349 288.886 341.863 282.031 348.736 270.88C355.61 259.729 364.759 265.368 364.915 268.887Z" fill="black"/>
<path opacity="0.2" d="M382.473 258.787C382.473 258.787 378.47 258.358 378.817 255.917C379.164 253.477 394.41 247.188 403.413 257.352C403.413 257.352 397.646 267.26 389.31 267.407C380.974 267.553 382.473 258.787 382.473 258.787Z" fill="black"/>
<path opacity="0.2" d="M386.632 275.121C386.632 275.121 383.89 272.891 386.851 271.803C389.813 270.715 404.492 271.017 404.638 285.513C404.638 285.513 387.573 288.356 385.444 282.826C383.314 277.296 386.632 275.121 386.632 275.121Z" fill="black"/>
<path d="M361.88 330.94H388.368L391.22 301.948H359.028L361.88 330.94Z" fill="#ECEFF1"/>
<path opacity="0.5" d="M361.88 330.94H388.368L391.22 301.948H359.028L361.88 330.94Z" fill="white"/>
<path d="M357.611 305.137H392.637V298.739H357.611V305.137Z" fill="#ECEFF1"/>
<path opacity="0.2" d="M357.611 305.137H392.637V298.739H357.611V305.137Z" fill="white"/>
<path d="M331.9 310.155L305.567 307.568V270.551H295.129V307.55L268.723 310.155C267.457 310.28 266.282 310.871 265.427 311.814C264.572 312.756 264.099 313.983 264.098 315.255V319.213H336.562V315.255C336.562 313.977 336.084 312.744 335.221 311.8C334.359 310.856 333.174 310.269 331.9 310.155Z" fill="#263238"/>
<path opacity="0.2" d="M331.9 310.155L305.567 307.568V270.551H295.129V307.55L268.723 310.155C267.457 310.28 266.282 310.871 265.427 311.814C264.572 312.756 264.099 313.983 264.098 315.255V319.213H336.562V315.255C336.562 313.977 336.084 312.744 335.221 311.8C334.359 310.856 333.174 310.269 331.9 310.155Z" fill="white"/>
<path d="M266.849 330.95C270.62 330.95 273.677 327.893 273.677 324.122C273.677 320.351 270.62 317.294 266.849 317.294C263.078 317.294 260.021 320.351 260.021 324.122C260.021 327.893 263.078 330.95 266.849 330.95Z" fill="#263238"/>
<path d="M333.746 330.95C337.517 330.95 340.574 327.893 340.574 324.122C340.574 320.351 337.517 317.294 333.746 317.294C329.976 317.294 326.919 320.351 326.919 324.122C326.919 327.893 329.976 330.95 333.746 330.95Z" fill="#263238"/>
<path d="M293.338 245.543H307.368V274.728C307.368 275.729 306.97 276.689 306.262 277.397C305.554 278.105 304.594 278.503 303.593 278.503H297.113C296.111 278.503 295.151 278.105 294.443 277.397C293.735 276.689 293.338 275.729 293.338 274.728V245.543Z" fill="#263238"/>
<path opacity="0.3" d="M293.338 245.543H307.368V274.728C307.368 275.729 306.97 276.689 306.262 277.397C305.554 278.105 304.594 278.503 303.593 278.503H297.113C296.111 278.503 295.151 278.105 294.443 277.397C293.735 276.689 293.338 275.729 293.338 274.728V245.543Z" fill="white"/>
<path d="M325.301 187.695C325.301 187.695 327.294 237.052 313.547 245.543H329.24C329.24 245.543 341.397 228.734 337.96 187.695H325.301Z" fill="#263238"/>
<path opacity="0.3" d="M325.301 187.695C325.301 187.695 327.294 237.052 313.547 245.543H329.24C329.24 245.543 341.397 228.734 337.96 187.695H325.301Z" fill="white"/>
<path d="M334.578 249.327H264.271V243.212C264.271 242 264.753 240.838 265.61 239.981C266.467 239.123 267.63 238.642 268.842 238.642H330.008C331.22 238.642 332.383 239.123 333.24 239.981C334.097 240.838 334.578 242 334.578 243.212V249.327Z" fill="#263238"/>
<path d="M263.175 249.327H335.666C336.68 249.327 337.503 248.504 337.503 247.49V245.826C337.503 244.812 336.68 243.989 335.666 243.989H263.175C262.16 243.989 261.337 244.812 261.337 245.826V247.49C261.337 248.504 262.16 249.327 263.175 249.327Z" fill="#263238"/>
<path opacity="0.6" d="M263.175 249.327H335.666C336.68 249.327 337.503 248.504 337.503 247.49V245.826C337.503 244.812 336.68 243.989 335.666 243.989H263.175C262.16 243.989 261.337 244.812 261.337 245.826V247.49C261.337 248.504 262.16 249.327 263.175 249.327Z" fill="white"/>
<path d="M341.808 161.234H316.672C309.312 161.234 303.346 167.2 303.346 174.56V184.395C303.346 191.755 309.312 197.721 316.672 197.721H341.808C349.168 197.721 355.134 191.755 355.134 184.395V174.56C355.134 167.2 349.168 161.234 341.808 161.234Z" fill="#263238"/>
<path d="M240.434 120.907L235.416 107.681C235.416 107.681 237.573 105.688 236.092 103.668C234.611 101.648 225.361 95.9723 223.68 96.9686C221.998 97.9649 218.241 101.731 220.27 103.824C222.299 105.917 231.239 109.399 231.239 109.399L235.681 126.766L240.434 120.907Z" fill="#E4897B"/>
<path d="M275.468 146.051C275.468 146.051 252.618 141.363 250.177 140.238C247.737 139.114 238.56 112.214 238.56 112.214L231.513 115.505C231.513 115.505 237.18 142.505 242.975 148.922C248.77 155.338 273.503 160.804 273.503 160.804L275.468 146.051Z" fill="#ECEFF1"/>
<path opacity="0.2" d="M273.448 160.776L273.028 160.676C271.785 160.392 267.882 159.478 263.248 158.117C255.725 155.932 246.238 152.632 242.929 148.931C237.143 142.532 231.467 115.505 231.467 115.505L238.505 112.214C238.505 112.214 247.691 139.123 250.177 140.238C252.663 141.353 275.468 146.051 275.468 146.051L273.448 160.776Z" fill="black"/>
<path d="M238.624 111.685L240.077 114.491L231.028 117.607L231.376 114.18L238.624 111.685Z" fill="#ECEFF1"/>
<path opacity="0.2" d="M273.622 160.402C272.361 160.219 268.403 159.606 263.668 158.574C266.365 153.912 274.262 151.517 274.262 151.517L273.622 160.402Z" fill="black"/>
<path d="M307.642 127.423C307.642 127.423 308.985 140.064 304.306 143.172C299.626 146.28 276.583 142.642 273.969 137.551C271.355 132.46 281.19 118.658 281.19 118.658L307.642 127.423Z" fill="#263238"/>
<path d="M214.421 293.758L220.435 295.211L223.479 286.912L226.239 279.362L219.393 276.446L216.761 285.605L214.421 293.758Z" fill="#E4897B"/>
<path opacity="0.2" d="M216.76 285.605L223.479 286.912L226.239 279.362L219.393 276.446L216.76 285.605Z" fill="black"/>
<path d="M217.364 281.226L225.7 284.325C225.7 284.325 247.938 228.725 252.508 228.57C257.078 228.414 303.611 249.766 315.274 237.902C326.937 226.038 310.073 197.429 310.073 197.429C310.073 197.429 282.022 193.425 279.91 199.76C279.391 201.627 278.994 203.526 278.722 205.445C278.402 207.383 278.183 209.01 278.183 209.01C277.315 208.79 249.154 201.524 238.057 209.01C226.769 216.623 217.364 281.226 217.364 281.226Z" fill="#ECEFF1"/>
<path opacity="0.6" d="M217.364 281.226L225.7 284.325C225.7 284.325 247.938 228.725 252.508 228.57C257.078 228.414 303.611 249.766 315.274 237.902C326.937 226.038 310.073 197.429 310.073 197.429C310.073 197.429 282.022 193.425 279.91 199.76C279.391 201.627 278.994 203.526 278.722 205.445C278.402 207.383 278.183 209.01 278.183 209.01C277.315 208.79 249.154 201.524 238.057 209.01C226.769 216.623 217.364 281.226 217.364 281.226Z" fill="white"/>
<path d="M265.313 317.476L271.3 315.95L270.149 307.349L269.079 299.47L261.676 300.137L263.595 309.323L265.313 317.476Z" fill="#E4897B"/>
<path opacity="0.2" d="M263.641 309.506L270.185 307.514L269.098 299.552L261.685 300.183L263.641 309.506Z" fill="black"/>
<path d="M229.146 281.235L216.998 277.113L216.477 282.085L225.691 285.339L229.146 281.235Z" fill="#ECEFF1"/>
<path d="M295.129 240.717C295.129 240.717 293.228 240.762 263.805 239.391C263.805 239.391 268.202 276.172 270.605 303.711L261.803 305.21C261.803 305.21 240.781 246.247 241.009 236.878C241.238 227.509 251.978 224.767 251.978 224.767C251.978 224.767 272.936 236.878 295.129 240.717Z" fill="#ECEFF1"/>
<path opacity="0.6" d="M295.129 240.717C295.129 240.717 293.228 240.762 263.805 239.391C263.805 239.391 268.202 276.172 270.605 303.711L261.803 305.21C261.803 305.21 240.781 246.247 241.009 236.878C241.238 227.509 251.978 224.767 251.978 224.767C251.978 224.767 272.936 236.878 295.129 240.717Z" fill="white"/>
<path opacity="0.1" d="M295.129 240.717C295.129 240.717 293.228 240.762 263.805 239.391C263.805 239.391 268.202 276.172 270.605 303.711L261.803 305.21C261.803 305.21 240.781 246.247 241.009 236.878C241.238 227.509 251.978 224.767 251.978 224.767C251.978 224.767 272.936 236.878 295.129 240.717Z" fill="black"/>
<path d="M271.885 301.042L259.793 302.422L262.133 307.157L271.922 305.905L271.885 301.042Z" fill="#ECEFF1"/>
<path opacity="0.1" d="M278.183 209.009L294.59 212.428C294.59 212.428 285.522 207.419 278.722 205.445C278.402 207.382 278.183 209.009 278.183 209.009Z" fill="black"/>
<path d="M309.397 193.069L310.073 197.429L279.91 199.759L279.115 194.595L309.397 193.069Z" fill="#263238"/>
<path opacity="0.2" d="M309.397 193.069L310.073 197.429L279.91 199.759L279.115 194.595L309.397 193.069Z" fill="black"/>
<path d="M299.883 200.374L301.375 200.221L300.594 192.629L299.103 192.782L299.883 200.374Z" fill="#ECEFF1"/>
<path d="M286.484 199.615L293.087 199.191L292.765 194.183L286.161 194.608L286.484 199.615Z" fill="white"/>
<path d="M281.377 201.171L282.868 201.018L282.088 193.426L280.596 193.579L281.377 201.171Z" fill="#ECEFF1"/>
<path opacity="0.6" d="M299.883 200.374L301.375 200.221L300.594 192.629L299.103 192.782L299.883 200.374Z" fill="white"/>
<path opacity="0.6" d="M281.377 201.171L282.868 201.018L282.088 193.426L280.596 193.579L281.377 201.171Z" fill="white"/>
<path d="M274.92 145.64C280.569 147.201 286.433 147.846 292.286 147.55C301.975 147.057 313.51 151.727 313.51 151.727L309.36 193.041L279.07 194.568C279.07 194.568 268.933 160.1 274.92 145.64Z" fill="#ECEFF1"/>
<path d="M279.791 122.305C279.791 122.305 281.491 102.252 298.255 109.509C319.277 118.649 302.569 143.09 292.286 138.081C282.003 133.073 279.791 122.305 279.791 122.305Z" fill="#263238"/>
<path opacity="0.2" d="M284.49 148.675L284.974 160.009L288.731 154.68C288.731 154.68 287.387 167.211 288.173 174.039C288.173 174.039 288.895 161.8 290.595 154.68L294.59 160.009L300.321 148.748C300.321 148.748 291.043 145.412 284.49 148.675Z" fill="black"/>
<path d="M289.681 150.813L298.356 148.364C293.008 144.708 295.705 136.481 295.705 136.481L287.113 139.498C287.508 140.692 287.814 141.914 288.027 143.154C288.941 148.51 286.51 148.94 286.51 148.94L289.681 150.813Z" fill="#E4897B"/>
<path opacity="0.2" d="M287.113 139.453C287.508 140.647 287.813 141.869 288.027 143.109C292.14 141.454 295.695 136.418 295.695 136.418L287.113 139.453Z" fill="black"/>
<path d="M292.725 113.75C285.111 112.068 281.757 115.578 279.472 123.311C276.611 132.954 277.241 140.394 287.213 140.412C300.759 140.43 305.357 116.547 292.725 113.75Z" fill="#E4897B"/>
<path d="M284.481 123.978C283.624 124.98 282.647 125.873 281.574 126.638C281.727 127.004 281.98 127.32 282.303 127.551C282.625 127.782 283.006 127.918 283.402 127.945L284.481 123.978Z" fill="#DE5753"/>
<path d="M289.279 124.38C289.124 125.002 289.334 125.596 289.755 125.696C290.175 125.797 290.623 125.376 290.778 124.782C290.934 124.188 290.724 123.576 290.303 123.466C289.883 123.356 289.435 123.758 289.279 124.38Z" fill="#263238"/>
<path d="M290.468 123.511L289.252 122.652C289.252 122.652 289.645 123.959 290.468 123.511Z" fill="#263238"/>
<path d="M281.583 122.351C281.428 122.972 281.638 123.566 282.058 123.667C282.479 123.767 282.972 123.347 283.082 122.753C283.192 122.159 283.027 121.546 282.607 121.437C282.186 121.327 281.738 121.729 281.583 122.351Z" fill="#263238"/>
<path d="M282.771 121.483L281.519 120.651C281.519 120.651 281.949 121.921 282.771 121.483Z" fill="#263238"/>
<path d="M293.566 121.354C293.505 121.355 293.444 121.34 293.391 121.309C293.338 121.279 293.294 121.234 293.264 121.181C292.963 120.71 292.561 120.314 292.086 120.02C291.612 119.725 291.077 119.541 290.522 119.481C290.435 119.469 290.355 119.425 290.299 119.357C290.243 119.289 290.215 119.203 290.221 119.115C290.23 119.027 290.273 118.946 290.342 118.889C290.41 118.833 290.498 118.806 290.586 118.813C291.26 118.878 291.909 119.099 292.483 119.457C293.057 119.816 293.541 120.302 293.895 120.879C293.915 120.918 293.928 120.96 293.931 121.004C293.935 121.048 293.93 121.092 293.916 121.134C293.903 121.175 293.881 121.214 293.852 121.247C293.823 121.28 293.788 121.307 293.749 121.327C293.691 121.35 293.628 121.359 293.566 121.354Z" fill="#263238"/>
<path d="M285.056 117.908C284.994 117.907 284.934 117.888 284.883 117.854C284.433 117.638 283.941 117.526 283.443 117.526C282.945 117.526 282.453 117.638 282.004 117.854C281.964 117.87 281.922 117.878 281.879 117.877C281.836 117.877 281.794 117.868 281.755 117.851C281.716 117.834 281.68 117.809 281.651 117.778C281.621 117.747 281.598 117.711 281.583 117.671C281.567 117.631 281.559 117.588 281.559 117.544C281.559 117.501 281.568 117.458 281.585 117.418C281.602 117.378 281.627 117.342 281.658 117.311C281.689 117.281 281.726 117.257 281.766 117.241C282.312 116.987 282.909 116.861 283.511 116.874C284.113 116.887 284.704 117.037 285.239 117.314C285.276 117.338 285.308 117.368 285.333 117.403C285.358 117.439 285.375 117.479 285.385 117.522C285.394 117.564 285.395 117.608 285.387 117.651C285.38 117.694 285.363 117.735 285.34 117.771C285.307 117.815 285.264 117.851 285.215 117.875C285.166 117.899 285.111 117.91 285.056 117.908Z" fill="#263238"/>
<path d="M298.2 128.411C298.2 128.411 296.024 121.373 297.633 116.666C297.633 116.666 283.923 107.169 279.791 122.305C279.791 122.305 281.318 108.394 294.47 110.99C307.623 113.585 303.318 132.698 295.302 136.902C295.302 136.902 299.534 132.807 298.2 128.411Z" fill="#263238"/>
<path d="M296.6 129.791C296.868 128.926 297.468 128.203 298.268 127.779C299.068 127.356 300.004 127.268 300.869 127.533C303.172 128.31 303.218 133.401 297.103 133.264C296.217 133.2 295.924 132.277 296.6 129.791Z" fill="#E4897B"/>
<path d="M282.021 130.833C282.225 131.766 282.359 132.714 282.424 133.667H282.917C285.193 133.859 286.308 133.191 286.857 132.405C287.119 132.015 287.282 131.566 287.332 131.098C287.371 130.835 287.371 130.567 287.332 130.303C285.865 130.808 284.306 130.992 282.762 130.842C282.323 130.87 282.021 130.833 282.021 130.833Z" fill="#263238"/>
<path d="M282.799 130.888L282.936 131.72C285.075 131.894 286.592 131.72 287.332 131.144C287.371 130.88 287.371 130.613 287.332 130.349C285.877 130.849 284.331 131.033 282.799 130.888Z" fill="white"/>
<path d="M282.917 133.712C285.193 133.904 286.309 133.237 286.857 132.451C285.994 132.395 285.128 132.491 284.298 132.734C283.746 132.907 283.263 133.249 282.917 133.712Z" fill="#DE5753"/>
<path d="M292.752 114.362C292.752 114.362 293.045 127.552 300.979 129.142C308.912 130.733 300.247 112.178 300.247 112.178C300.247 112.178 288.457 104.482 280.596 109.911C272.735 115.34 279.81 122.305 279.81 122.305C279.81 122.305 281.446 112.507 292.752 114.362Z" fill="#263238"/>
<path d="M295.778 126.437C295.724 126.436 295.672 126.417 295.632 126.382C290.001 121.958 292.78 113.494 292.807 113.412C292.828 113.355 292.87 113.308 292.924 113.281C292.979 113.253 293.041 113.248 293.1 113.266C293.157 113.287 293.203 113.329 293.229 113.384C293.254 113.439 293.257 113.501 293.237 113.558C293.237 113.641 290.54 121.785 295.915 126.026C295.937 126.046 295.954 126.071 295.966 126.098C295.978 126.126 295.984 126.156 295.984 126.186C295.984 126.216 295.978 126.245 295.966 126.273C295.954 126.3 295.937 126.325 295.915 126.346C295.9 126.37 295.88 126.39 295.856 126.406C295.832 126.422 295.806 126.432 295.778 126.437Z" fill="#263238"/>
<path d="M303.273 131.848C302.268 134.535 299.681 136.043 297.496 135.23C295.312 134.416 294.361 131.574 295.367 128.887C296.372 126.199 298.959 124.691 301.143 125.514C303.328 126.336 304.278 129.17 303.273 131.848Z" fill="#ECEFF1"/>
<path opacity="0.4" d="M303.273 131.848C302.268 134.535 299.681 136.043 297.496 135.23C295.312 134.416 294.361 131.574 295.367 128.887C296.372 126.199 298.959 124.691 301.143 125.514C303.328 126.336 304.278 129.17 303.273 131.848Z" fill="black"/>
<path d="M300.713 127.451C300.713 127.451 303.995 112.763 296.637 108.915C297.475 109.024 298.305 109.186 299.123 109.399C300.037 109.673 305.951 115.633 302.98 128.831L300.713 127.451Z" fill="#ECEFF1"/>
<path opacity="0.2" d="M300.713 127.451C300.713 127.451 303.995 112.763 296.637 108.915C297.475 109.024 298.305 109.186 299.123 109.399C300.037 109.673 305.951 115.633 302.98 128.831L300.713 127.451Z" fill="black"/>
<path d="M287.003 135.86L286.455 135.778L286.601 134.864C290.638 135.485 294.762 134.61 298.2 132.405L298.739 133.136C295.282 135.427 291.115 136.394 287.003 135.86Z" fill="#ECEFF1"/>
<g opacity="0.2">
<path d="M287.003 135.86L286.455 135.778L286.601 134.864C290.638 135.485 294.762 134.61 298.2 132.405L298.739 133.136C295.282 135.427 291.115 136.394 287.003 135.86Z" fill="black"/>
</g>
<path d="M302.962 131.482C302.304 133.255 300.586 134.224 299.151 133.712C297.716 133.2 297.076 131.299 297.743 129.526C298.41 127.752 300.119 126.784 301.554 127.295C302.989 127.807 303.629 129.708 302.962 131.482Z" fill="#ECEFF1"/>
<path d="M286.144 136.189L285.404 136.088C285.274 136.071 285.15 136.029 285.037 135.964C284.924 135.899 284.825 135.812 284.746 135.708C284.667 135.604 284.61 135.486 284.576 135.36C284.543 135.234 284.536 135.102 284.554 134.973C284.569 134.843 284.611 134.717 284.676 134.604C284.74 134.49 284.827 134.39 284.931 134.31C285.035 134.23 285.154 134.171 285.28 134.138C285.407 134.104 285.539 134.096 285.669 134.114L286.4 134.215C286.661 134.251 286.897 134.388 287.057 134.597C287.218 134.805 287.29 135.068 287.259 135.33C287.223 135.59 287.086 135.826 286.877 135.987C286.669 136.148 286.405 136.22 286.144 136.189Z" fill="#ECEFF1"/>
<path opacity="0.4" d="M286.144 136.189L285.404 136.088C285.274 136.071 285.15 136.029 285.037 135.964C284.924 135.899 284.825 135.812 284.746 135.708C284.667 135.604 284.61 135.486 284.576 135.36C284.543 135.234 284.536 135.102 284.554 134.973C284.569 134.843 284.611 134.717 284.676 134.604C284.74 134.49 284.827 134.39 284.931 134.31C285.035 134.23 285.154 134.171 285.28 134.138C285.407 134.104 285.539 134.096 285.669 134.114L286.4 134.215C286.661 134.251 286.897 134.388 287.057 134.597C287.218 134.805 287.29 135.068 287.259 135.33C287.223 135.59 287.086 135.826 286.877 135.987C286.669 136.148 286.405 136.22 286.144 136.189Z" fill="black"/>
<path d="M296.025 145.192L290.595 150.521L292.771 157.066L300.32 148.748L296.025 145.192Z" fill="#ECEFF1"/>
<path d="M288.173 146.307L289.051 150.411L286.245 156.215L284.49 148.675L288.173 146.307Z" fill="#ECEFF1"/>
<path d="M294.864 149.817L298.017 138.273C298.017 138.273 296.491 135.403 296.82 134.8C297.149 134.197 298.794 126.446 299.964 125.605C301.134 124.764 305.951 126.199 306.435 126.985C306.92 127.771 301.819 138.273 301.819 138.273L299.991 150.786L294.864 149.817Z" fill="#E4897B"/>
<path d="M313.51 151.728C322.193 160.612 304.799 180.739 294.827 179.88C284.855 179.021 295.083 142.533 295.083 142.533L301.481 143.584C301.481 143.584 299.242 159.378 299.946 160.612C300.65 161.846 310.631 148.775 313.51 151.728Z" fill="#ECEFF1"/>
<path opacity="0.2" d="M313.51 151.728C322.193 160.612 304.799 180.739 294.827 179.88C284.855 179.021 295.083 142.533 295.083 142.533L301.481 143.584C301.481 143.584 299.242 159.378 299.946 160.612C300.65 161.846 310.631 148.775 313.51 151.728Z" fill="black"/>
<path d="M294.59 141.39L293.648 144.406L302.542 145.192V142.56L294.59 141.39Z" fill="#ECEFF1"/>
<path opacity="0.6" d="M281.108 165.255H277.506C277.108 165.255 276.784 165.578 276.784 165.977V172.778C276.784 173.176 277.108 173.5 277.506 173.5H281.108C281.507 173.5 281.83 173.176 281.83 172.778V165.977C281.83 165.578 281.507 165.255 281.108 165.255Z" fill="white"/>
<path opacity="0.2" d="M281.181 165.804H277.086V171.407H281.181V165.804Z" fill="black"/>
<path d="M279.682 163.271H278.777V166.571H279.682V163.271Z" fill="#263238"/>
<path d="M204.476 305.439C205.388 305.014 206.37 304.763 207.374 304.698C207.374 304.698 210.847 302.66 214.284 294.717H218.15C218.806 294.722 219.444 294.929 219.977 295.31C220.51 295.691 220.913 296.228 221.13 296.847C221.194 297.016 221.231 297.195 221.239 297.377C221.194 298.311 221.093 299.242 220.938 300.165C220.372 303.255 219.618 306.307 218.68 309.305L218.022 309.14L219.21 303.364C219.612 301.408 217.547 303.3 216.596 305.274C215.645 307.248 214.174 309.25 209.896 308.272C204.915 307.047 202.913 306.334 204.476 305.439Z" fill="#ECEFF1"/>
<path d="M214.987 292.642C214.987 292.642 210.152 302.752 207.374 304.698C207.374 304.698 211.103 306.919 214.987 301.956C220.005 295.558 221.239 297.341 221.239 297.341C221.134 296.237 220.929 295.144 220.627 294.077C219.877 292.03 214.987 292.642 214.987 292.642Z" fill="#E4897B"/>
<path d="M257.69 329.523C258.48 328.901 259.375 328.424 260.332 328.116C260.332 328.116 263.22 325.31 264.674 316.782L268.43 315.868C269.068 315.721 269.735 315.774 270.342 316.019C270.948 316.264 271.465 316.69 271.821 317.239C271.924 317.391 272.004 317.557 272.059 317.732C272.242 318.638 272.367 319.553 272.434 320.474C272.609 323.598 272.594 326.73 272.388 329.852H271.712L271.501 323.966C271.419 321.964 269.874 324.295 269.408 326.443C268.942 328.591 268.001 330.867 263.613 330.931C258.504 330.986 256.383 330.766 257.69 329.523Z" fill="#ECEFF1"/>
<path d="M264.866 314.598C264.866 314.598 262.572 325.566 260.296 328.116C260.296 328.116 264.445 329.396 267.041 323.665C270.405 316.261 272.023 317.705 272.023 317.705C271.661 316.658 271.205 315.645 270.661 314.68C269.472 312.852 264.866 314.598 264.866 314.598Z" fill="#E4897B"/>
<path d="M349.851 93.3674H317.943C315.384 93.3674 313.309 95.4422 313.309 98.0015V111.648C313.309 114.207 315.384 116.282 317.943 116.282H349.851C352.411 116.282 354.486 114.207 354.486 111.648V98.0015C354.486 95.4422 352.411 93.3674 349.851 93.3674Z" fill="#ECEFF1"/>
<path d="M324.341 113.668L314.725 126.738L330.236 114.545L324.341 113.668Z" fill="#ECEFF1"/>
<path d="M324.697 104.82C324.699 105.088 324.621 105.351 324.473 105.575C324.325 105.799 324.114 105.974 323.867 106.077C323.619 106.181 323.346 106.208 323.083 106.156C322.82 106.104 322.578 105.975 322.388 105.786C322.198 105.596 322.069 105.354 322.017 105.091C321.966 104.827 321.993 104.555 322.097 104.307C322.2 104.06 322.375 103.848 322.599 103.701C322.823 103.553 323.085 103.475 323.354 103.476C323.71 103.476 324.052 103.618 324.304 103.87C324.556 104.122 324.697 104.464 324.697 104.82Z" fill="white"/>
<path d="M331.726 104.82C331.728 105.088 331.65 105.351 331.502 105.575C331.354 105.799 331.143 105.974 330.895 106.077C330.648 106.181 330.375 106.208 330.112 106.156C329.849 106.104 329.607 105.975 329.417 105.786C329.227 105.596 329.098 105.354 329.046 105.091C328.994 104.827 329.022 104.555 329.125 104.307C329.229 104.06 329.404 103.848 329.628 103.701C329.851 103.553 330.114 103.475 330.383 103.476C330.739 103.476 331.081 103.618 331.333 103.87C331.585 104.122 331.726 104.464 331.726 104.82Z" fill="white"/>
<path d="M338.755 104.82C338.757 105.088 338.679 105.351 338.531 105.575C338.383 105.799 338.172 105.974 337.924 106.077C337.677 106.181 337.404 106.208 337.141 106.156C336.877 106.104 336.636 105.975 336.446 105.786C336.256 105.596 336.127 105.354 336.075 105.091C336.023 104.827 336.051 104.555 336.154 104.307C336.258 104.06 336.433 103.848 336.656 103.701C336.88 103.553 337.143 103.475 337.411 103.476C337.768 103.476 338.11 103.618 338.362 103.87C338.613 104.122 338.755 104.464 338.755 104.82Z" fill="white"/>
<path d="M345.784 104.82C345.786 105.088 345.708 105.351 345.56 105.575C345.412 105.799 345.201 105.974 344.953 106.077C344.705 106.181 344.433 106.208 344.169 106.156C343.906 106.104 343.664 105.975 343.475 105.786C343.285 105.596 343.156 105.354 343.104 105.091C343.052 104.827 343.08 104.555 343.183 104.307C343.287 104.06 343.461 103.848 343.685 103.701C343.909 103.553 344.172 103.475 344.44 103.476C344.797 103.476 345.138 103.618 345.39 103.87C345.642 104.122 345.784 104.464 345.784 104.82Z" fill="white"/>
<path d="M230.036 82.5622L207.271 70.2994C206.657 69.969 205.892 70.1984 205.562 70.8117L198.297 84.2984C197.967 84.9118 198.196 85.6768 198.809 86.0071L221.574 98.2699C222.188 98.6003 222.953 98.3709 223.283 97.7576L230.548 84.2708C230.878 83.6575 230.649 82.8925 230.036 82.5622Z" fill="#ECEFF1"/>
<path opacity="0.7" d="M230.036 82.5622L207.271 70.2994C206.657 69.969 205.892 70.1984 205.562 70.8117L198.297 84.2984C197.967 84.9118 198.196 85.6768 198.809 86.0071L221.574 98.2699C222.188 98.6003 222.953 98.3709 223.283 97.7576L230.548 84.2708C230.878 83.6575 230.649 82.8925 230.036 82.5622Z" fill="white"/>
<path opacity="0.2" d="M204.97 71.9248L212.053 85.2238C212.325 85.7305 212.741 86.145 213.249 86.4151C213.757 86.6852 214.333 86.7986 214.905 86.7411L229.721 85.2787L214.64 87.4998C213.981 87.5972 213.308 87.479 212.722 87.1627C212.135 86.8465 211.667 86.3491 211.386 85.7448L204.97 71.9248Z" fill="black"/>
<path d="M187.686 69.4658C187.932 64.3838 191.698 54.1376 196.277 51.0025C200.857 47.8674 197.84 52.209 197.84 52.209C197.84 52.209 202.182 47.9862 204.467 48.1142C206.752 48.2422 204.467 50.8563 204.467 50.8563C204.467 50.8563 209.174 47.9588 211.34 48.1142C213.507 48.2696 211.34 50.774 211.34 50.774C211.34 50.774 215.198 48.0319 216.761 49.3207C218.324 50.6095 196.753 64.8591 194.349 70.654C191.945 76.4489 187.439 74.5934 187.686 69.4658Z" fill="#ECEFF1"/>
<path opacity="0.4" d="M187.686 69.4658C187.932 64.3838 191.698 54.1376 196.277 51.0025C200.857 47.8674 197.84 52.209 197.84 52.209C197.84 52.209 202.182 47.9862 204.467 48.1142C206.752 48.2422 204.467 50.8563 204.467 50.8563C204.467 50.8563 209.174 47.9588 211.34 48.1142C213.507 48.2696 211.34 50.774 211.34 50.774C211.34 50.774 215.198 48.0319 216.761 49.3207C218.324 50.6095 196.753 64.8591 194.349 70.654C191.945 76.4489 187.439 74.5934 187.686 69.4658Z" fill="white"/>
<path d="M206.222 68.6985L209.101 70.5265C209.147 70.5547 209.181 70.5974 209.199 70.6477C209.218 70.698 209.218 70.753 209.201 70.8037C209.184 70.8544 209.151 70.898 209.106 70.9273C209.061 70.9566 209.008 70.97 208.955 70.9653L205.929 70.7276L206.185 73.0492C206.193 73.104 206.182 73.1596 206.156 73.2079C206.129 73.2562 206.087 73.2946 206.037 73.3172C205.986 73.3398 205.93 73.3455 205.876 73.3335C205.822 73.3214 205.773 73.2923 205.737 73.2503L203.992 71.2943L206.222 68.6985Z" fill="#ECEFF1"/>
<path opacity="0.3" d="M206.222 68.6985L209.101 70.5265C209.147 70.5547 209.181 70.5974 209.199 70.6477C209.218 70.698 209.218 70.753 209.201 70.8037C209.184 70.8544 209.151 70.898 209.106 70.9273C209.061 70.9566 209.008 70.97 208.955 70.9653L205.929 70.7276L206.185 73.0492C206.193 73.104 206.182 73.1596 206.156 73.2079C206.129 73.2562 206.087 73.2946 206.037 73.3172C205.986 73.3398 205.93 73.3455 205.876 73.3335C205.822 73.3214 205.773 73.2923 205.737 73.2503L203.992 71.2943L206.222 68.6985Z" fill="white"/>
<path d="M165.777 57.2545C165.777 57.2545 169.762 54.5125 175.785 56.2857C175.785 56.2857 177.513 64.2468 182.256 66.8975C184.861 68.3508 191.232 68.2228 196.278 66.5958C202.264 64.6581 205.189 64.6581 206.277 66.8975C207.365 69.1368 206.158 71.4676 201.579 72.5553C197 73.643 193.353 81.595 185.063 81.6955C176.772 81.7961 172.367 73.4693 174.46 66.1571C172.478 62.419 169.464 59.329 165.777 57.2545Z" fill="#ECEFF1"/>
<path opacity="0.5" d="M165.777 57.2545C165.777 57.2545 169.762 54.5125 175.785 56.2857C175.785 56.2857 177.513 64.2468 182.256 66.8975C184.861 68.3508 191.232 68.2228 196.278 66.5958C202.264 64.6581 205.189 64.6581 206.277 66.8975C207.365 69.1368 206.158 71.4676 201.579 72.5553C197 73.643 193.353 81.595 185.063 81.6955C176.772 81.7961 172.367 73.4693 174.46 66.1571C172.478 62.419 169.464 59.329 165.777 57.2545Z" fill="white"/>
<path d="M203.992 68.4057C203.992 68.487 203.968 68.5666 203.922 68.6342C203.877 68.7019 203.813 68.7546 203.738 68.7857C203.663 68.8168 203.58 68.825 203.5 68.8091C203.42 68.7932 203.347 68.7541 203.29 68.6965C203.232 68.639 203.193 68.5657 203.177 68.4859C203.161 68.4062 203.169 68.3234 203.2 68.2483C203.232 68.1731 203.284 68.1089 203.352 68.0637C203.42 68.0185 203.499 67.9944 203.58 67.9944C203.69 67.9944 203.794 68.0377 203.871 68.1149C203.948 68.192 203.992 68.2966 203.992 68.4057Z" fill="#263238"/>
<path d="M183.134 75.0963C178.225 76.4307 167.312 76.0103 162.925 72.6284C158.537 69.2465 163.583 70.8004 163.583 70.8004C163.583 70.8004 158.236 67.976 157.642 65.7641C157.048 63.5521 160.274 64.9049 160.274 64.9049C160.274 64.9049 156.07 61.3311 155.521 59.2288C154.973 57.1266 158.044 58.4062 158.044 58.4062C158.044 58.4062 154.214 55.591 154.991 53.699C155.768 51.8069 175.959 67.9303 182.201 68.433C188.444 68.9357 188.106 73.7435 183.134 75.0963Z" fill="#ECEFF1"/>
<path opacity="0.4" d="M183.134 75.0963C178.225 76.4307 167.312 76.0103 162.925 72.6284C158.537 69.2465 163.583 70.8004 163.583 70.8004C163.583 70.8004 158.236 67.976 157.642 65.7641C157.048 63.5521 160.274 64.9049 160.274 64.9049C160.274 64.9049 156.07 61.3311 155.521 59.2288C154.973 57.1266 158.044 58.4062 158.044 58.4062C158.044 58.4062 154.214 55.591 154.991 53.699C155.768 51.8069 175.959 67.9303 182.201 68.433C188.444 68.9357 188.106 73.7435 183.134 75.0963Z" fill="white"/>
<path d="M150.96 52.8583C150.924 52.8672 150.887 52.8672 150.851 52.8583C150 52.5567 149.132 52.2733 148.255 52.0083C148.168 51.9809 148.095 51.9205 148.053 51.8402C148.01 51.7598 148 51.6659 148.026 51.5787C148.054 51.4919 148.114 51.4194 148.194 51.3766C148.275 51.3339 148.369 51.3244 148.456 51.3502C149.37 51.6152 150.22 51.9077 151.079 52.2642C151.156 52.2903 151.22 52.3431 151.261 52.4128C151.302 52.4826 151.317 52.5647 151.303 52.6443C151.288 52.7239 151.246 52.7958 151.183 52.8468C151.12 52.8978 151.041 52.9246 150.96 52.9223V52.8583Z" fill="#ECEFF1"/>
<path d="M95.7166 127.049C95.626 127.049 95.539 127.014 95.4741 126.951C95.4093 126.887 95.3716 126.801 95.3692 126.711C95.3692 126.62 95.4045 126.533 95.4677 126.468C95.5309 126.404 95.6169 126.366 95.7074 126.363C97.5257 126.338 99.3387 126.16 101.128 125.833C101.217 125.817 101.31 125.837 101.385 125.888C101.46 125.939 101.512 126.018 101.53 126.108C101.539 126.152 101.539 126.198 101.53 126.242C101.521 126.287 101.504 126.329 101.478 126.367C101.452 126.404 101.42 126.436 101.381 126.461C101.343 126.485 101.3 126.502 101.256 126.51C99.4276 126.844 97.5747 127.025 95.7166 127.049ZM90.2324 126.757C88.388 126.56 86.5568 126.255 84.7483 125.842C84.6588 125.823 84.5807 125.768 84.531 125.691C84.4814 125.614 84.4642 125.521 84.4832 125.431C84.5049 125.343 84.5601 125.267 84.6369 125.22C84.7137 125.172 84.8061 125.156 84.8945 125.175C86.6744 125.576 88.4746 125.881 90.2873 126.089C90.3686 126.103 90.4425 126.144 90.4958 126.207C90.5491 126.27 90.5784 126.35 90.5784 126.432C90.5784 126.514 90.5491 126.594 90.4958 126.657C90.4425 126.72 90.3686 126.761 90.2873 126.775L90.2324 126.757ZM106.475 124.928C106.409 124.929 106.344 124.91 106.289 124.874C106.234 124.839 106.19 124.787 106.164 124.727C106.144 124.686 106.133 124.641 106.131 124.596C106.129 124.55 106.137 124.504 106.153 124.462C106.169 124.419 106.194 124.38 106.226 124.347C106.257 124.314 106.295 124.288 106.338 124.27C107.998 123.555 109.539 122.59 110.908 121.409C110.978 121.356 111.065 121.331 111.153 121.34C111.24 121.349 111.321 121.39 111.379 121.457C111.437 121.523 111.468 121.608 111.465 121.696C111.463 121.784 111.427 121.868 111.365 121.93C109.941 123.152 108.342 124.153 106.621 124.901C106.57 124.929 106.514 124.945 106.456 124.947L106.475 124.928ZM79.5201 124.307C79.4841 124.316 79.4464 124.316 79.4104 124.307C77.6737 123.731 75.928 123.055 74.237 122.314C74.1621 122.272 74.1058 122.202 74.0791 122.12C74.0523 122.038 74.0571 121.949 74.0925 121.87C74.1279 121.792 74.1913 121.729 74.2704 121.694C74.3495 121.66 74.4386 121.656 74.5204 121.684C76.1839 122.415 77.9023 123.082 79.6298 123.658C79.7153 123.689 79.7852 123.752 79.8245 123.834C79.8638 123.916 79.8694 124.011 79.84 124.097C79.8141 124.16 79.7697 124.214 79.7126 124.251C79.6555 124.289 79.5884 124.308 79.5201 124.307ZM69.4658 119.865C69.4122 119.881 69.3549 119.881 69.3013 119.865C67.6652 118.951 66.0748 117.964 64.5941 116.931C64.5575 116.905 64.5263 116.872 64.5023 116.834C64.4784 116.796 64.4621 116.754 64.4545 116.71C64.4469 116.666 64.448 116.621 64.4578 116.577C64.4677 116.533 64.486 116.492 64.5118 116.455C64.5376 116.419 64.5704 116.388 64.6082 116.364C64.6461 116.34 64.6883 116.324 64.7324 116.316C64.7766 116.308 64.8218 116.309 64.8655 116.319C64.9092 116.329 64.9505 116.347 64.9871 116.373C66.4495 117.388 68.0125 118.366 69.6395 119.271C69.6788 119.293 69.7135 119.322 69.7413 119.357C69.7691 119.393 69.7896 119.433 69.8015 119.477C69.8134 119.52 69.8165 119.566 69.8107 119.61C69.8048 119.655 69.7901 119.698 69.7674 119.737C69.7288 119.796 69.6734 119.842 69.6083 119.87C69.5432 119.898 69.4713 119.905 69.4018 119.892L69.4658 119.865ZM114.655 117.772C114.601 117.788 114.544 117.788 114.491 117.772C114.451 117.75 114.417 117.72 114.389 117.685C114.361 117.65 114.341 117.609 114.329 117.565C114.317 117.522 114.314 117.477 114.319 117.432C114.325 117.387 114.34 117.344 114.363 117.306C114.646 116.812 114.911 116.3 115.149 115.77C115.657 114.651 116.055 113.484 116.337 112.288C116.361 112.199 116.418 112.123 116.496 112.075C116.574 112.028 116.668 112.012 116.757 112.032C116.845 112.055 116.921 112.113 116.967 112.191C117.013 112.27 117.026 112.364 117.004 112.452C116.706 113.688 116.293 114.894 115.77 116.053C115.523 116.602 115.249 117.141 114.957 117.653C114.918 117.711 114.862 117.757 114.797 117.783C114.731 117.809 114.66 117.815 114.591 117.799L114.655 117.772ZM60.4535 113.549C60.3731 113.548 60.2956 113.519 60.2342 113.467C58.8422 112.237 57.538 110.912 56.3313 109.5C56.2682 109.435 56.2329 109.348 56.2329 109.258C56.2329 109.167 56.2682 109.08 56.3313 109.015C56.3946 108.953 56.48 108.918 56.5689 108.918C56.6579 108.918 56.7433 108.953 56.8066 109.015C57.9915 110.397 59.2712 111.695 60.6363 112.9C60.6994 112.965 60.7347 113.052 60.7347 113.142C60.7347 113.233 60.6994 113.32 60.6363 113.384C60.6137 113.434 60.5794 113.477 60.5365 113.511C60.4935 113.544 60.4431 113.567 60.3896 113.576L60.4535 113.549ZM117.288 107.206C117.242 107.206 117.198 107.197 117.156 107.179C117.114 107.161 117.077 107.136 117.045 107.103C117.014 107.071 116.989 107.033 116.972 106.99C116.956 106.948 116.948 106.903 116.949 106.858C116.936 105.041 116.768 103.227 116.447 101.438C116.43 101.348 116.45 101.256 116.501 101.181C116.553 101.106 116.632 101.054 116.721 101.036C116.811 101.022 116.904 101.044 116.979 101.097C117.053 101.15 117.105 101.229 117.123 101.319C117.452 103.148 117.623 105.001 117.635 106.858C117.635 106.95 117.598 107.039 117.533 107.104C117.468 107.169 117.38 107.206 117.288 107.206ZM115.459 96.3652C115.385 96.3645 115.314 96.3402 115.254 96.2958C115.195 96.2514 115.152 96.1893 115.13 96.1185C114.664 94.5189 114.088 92.8188 113.385 90.9177C113.367 90.8752 113.359 90.8296 113.359 90.7836C113.36 90.7377 113.37 90.6924 113.389 90.6505C113.408 90.6086 113.435 90.5709 113.469 90.5399C113.503 90.5088 113.542 90.485 113.586 90.4698C113.671 90.4399 113.764 90.4442 113.846 90.4817C113.928 90.5192 113.992 90.587 114.024 90.6709C114.737 92.5903 115.313 94.327 115.789 95.9174C115.814 96.0046 115.805 96.0985 115.762 96.1789C115.719 96.2592 115.647 96.3196 115.56 96.347L115.459 96.3652ZM111.675 85.9911C111.612 85.9916 111.55 85.9737 111.496 85.9396C111.443 85.9056 111.4 85.8568 111.374 85.7991C110.789 84.3367 109.994 82.6549 109.162 80.8725V80.7812C109.138 80.7015 109.144 80.6159 109.178 80.54C109.211 80.4641 109.271 80.4028 109.347 80.3674C109.422 80.332 109.507 80.3248 109.588 80.347C109.668 80.3693 109.737 80.4195 109.783 80.4887V80.5801C110.624 82.4081 111.41 84.0625 111.995 85.4975C112.032 85.5836 112.034 85.6808 112 85.7681C111.965 85.8553 111.898 85.9256 111.813 85.9637L111.675 85.9911ZM107.105 75.9368C107.038 75.939 106.972 75.921 106.915 75.8851C106.858 75.8493 106.813 75.7973 106.785 75.7357C105.963 73.8254 105.305 72.1345 104.784 70.5715C104.754 70.4854 104.76 70.3912 104.799 70.3092C104.838 70.2272 104.908 70.1638 104.994 70.1328C105.081 70.1038 105.176 70.1107 105.259 70.1518C105.341 70.1929 105.403 70.265 105.433 70.3521C105.944 71.8968 106.593 73.5695 107.416 75.4615C107.434 75.5029 107.443 75.5474 107.444 75.5925C107.444 75.6375 107.436 75.6822 107.419 75.7239C107.402 75.7657 107.377 75.8036 107.345 75.8354C107.313 75.8673 107.275 75.8924 107.233 75.9094C107.203 75.9418 107.165 75.9668 107.124 75.9825L107.105 75.9368ZM103.76 65.4621C103.678 65.461 103.599 65.431 103.538 65.3775C103.476 65.324 103.435 65.2504 103.422 65.1696C103.265 64.1903 103.185 63.2001 103.184 62.2082C103.177 61.322 103.256 60.4373 103.422 59.5667C103.448 59.4856 103.503 59.417 103.577 59.374C103.651 59.3311 103.738 59.3167 103.821 59.3336C103.905 59.3505 103.979 59.3976 104.03 59.4659C104.081 59.5342 104.105 59.6188 104.098 59.7038C103.94 60.5291 103.863 61.3679 103.87 62.2082C103.873 63.1663 103.949 64.1227 104.098 65.0691C104.109 65.1583 104.086 65.2483 104.034 65.3212C103.981 65.394 103.903 65.4444 103.815 65.4621H103.76ZM106.146 55.0788C106.066 55.081 105.988 55.0551 105.926 55.0057C105.863 54.9409 105.828 54.854 105.828 54.7635C105.828 54.673 105.863 54.5861 105.926 54.5213C107.153 53.0877 108.646 51.9051 110.323 51.0388C110.403 50.9962 110.497 50.9867 110.584 51.0123C110.671 51.0379 110.744 51.0967 110.789 51.1759C110.828 51.2577 110.835 51.3514 110.808 51.438C110.781 51.5246 110.722 51.5976 110.643 51.6421C109.046 52.4677 107.625 53.5943 106.456 54.96C106.426 55.0105 106.383 55.0522 106.332 55.0811C106.281 55.11 106.223 55.1249 106.164 55.1245L106.146 55.0788ZM142.999 50.6001H142.926C141.171 50.2345 139.352 49.9237 137.515 49.6861C137.47 49.6805 137.427 49.666 137.388 49.6436C137.349 49.6212 137.315 49.5912 137.288 49.5555C137.261 49.5198 137.241 49.479 137.23 49.4355C137.218 49.392 137.216 49.3467 137.222 49.3022C137.228 49.2576 137.242 49.2146 137.265 49.1757C137.287 49.1367 137.317 49.1026 137.353 49.0754C137.389 49.0482 137.429 49.0284 137.473 49.0171C137.516 49.0058 137.562 49.0033 137.606 49.0097C139.434 49.2474 141.262 49.5581 143.09 49.9237C143.172 49.9426 143.245 49.9906 143.294 50.0588C143.343 50.127 143.366 50.2107 143.358 50.2945C143.35 50.3782 143.312 50.4563 143.251 50.5142C143.19 50.5721 143.11 50.6059 143.026 50.6093L142.999 50.6001ZM115.578 49.8232C115.534 49.828 115.489 49.824 115.446 49.8114C115.403 49.7989 115.363 49.778 115.328 49.75C115.294 49.722 115.265 49.6874 115.243 49.6482C115.222 49.609 115.208 49.566 115.204 49.5216C115.199 49.4772 115.203 49.4322 115.215 49.3894C115.228 49.3465 115.249 49.3065 115.277 49.2717C115.305 49.2369 115.339 49.208 115.379 49.1865C115.418 49.1651 115.461 49.1516 115.505 49.1468C117.31 48.7419 119.144 48.476 120.989 48.3516C121.08 48.3466 121.169 48.3772 121.237 48.437C121.306 48.4968 121.348 48.581 121.355 48.6715C121.359 48.7167 121.353 48.7621 121.339 48.8052C121.325 48.8482 121.302 48.888 121.272 48.9221C121.243 48.9562 121.206 48.9839 121.165 49.0037C121.125 49.0235 121.08 49.0348 121.035 49.0371C119.22 49.1545 117.417 49.4143 115.642 49.8141L115.578 49.8232ZM132.031 49.1834C130.44 49.0737 128.548 48.9549 126.547 48.9183C126.456 48.9159 126.37 48.8783 126.307 48.8134C126.244 48.7485 126.208 48.6615 126.208 48.571C126.208 48.5258 126.217 48.4811 126.235 48.4394C126.253 48.3978 126.278 48.3601 126.311 48.3286C126.343 48.297 126.381 48.2723 126.423 48.2559C126.466 48.2394 126.511 48.2316 126.556 48.2328C128.576 48.2785 130.486 48.3882 132.04 48.4979C132.085 48.5002 132.129 48.5115 132.17 48.5313C132.211 48.5511 132.247 48.5788 132.277 48.6129C132.307 48.647 132.33 48.6868 132.344 48.7298C132.358 48.7729 132.363 48.8183 132.36 48.8635C132.366 48.946 132.343 49.0282 132.295 49.0952C132.246 49.1623 132.175 49.2097 132.095 49.2291L132.031 49.1834Z" fill="#ECEFF1"/>
<path d="M53.3426 105.113C53.2813 105.114 53.2208 105.099 53.1677 105.068C53.1146 105.037 53.0707 104.993 53.0409 104.939C52.5787 104.137 52.1666 103.307 51.807 102.453C51.7891 102.412 51.7796 102.367 51.7791 102.322C51.7786 102.277 51.7871 102.233 51.8041 102.191C51.8212 102.149 51.8464 102.111 51.8782 102.079C51.9101 102.047 51.9481 102.022 51.9898 102.005C52.0736 101.972 52.1672 101.972 52.2508 102.006C52.3344 102.04 52.4014 102.105 52.4377 102.188C52.7906 103.015 53.1904 103.82 53.635 104.601C53.6692 104.652 53.6885 104.711 53.6907 104.773C53.6929 104.834 53.6779 104.895 53.6475 104.948C53.6171 105.001 53.5725 105.045 53.5186 105.074C53.4647 105.103 53.4037 105.117 53.3426 105.113Z" fill="#ECEFF1"/>
<path d="M164.351 177.357H129.655V184.468H164.351V177.357Z" fill="white"/>
<path opacity="0.1" d="M164.351 177.357H129.655V184.468H164.351V177.357Z" fill="black"/>
<path opacity="0.1" d="M144.27 177.357H129.655V184.468H144.27V177.357Z" fill="black"/>
<path opacity="0.1" d="M129.655 178.38H160.539L129.655 179.258V178.38Z" fill="black"/>
<path opacity="0.1" d="M164.351 179.615L137.579 180.282H164.351V179.615Z" fill="black"/>
<path opacity="0.1" d="M131.072 181.607L144.27 181.068L163.675 181.607L144.27 181.909L131.072 181.607Z" fill="black"/>
<path opacity="0.1" d="M129.655 183.115H152.523L129.655 183.655V183.115Z" fill="black"/>
<path opacity="0.1" d="M164.296 183.655L149.023 183.938H164.351L164.296 183.655Z" fill="black"/>
<path d="M159.525 170.246H124.829V177.357H159.525V170.246Z" fill="white"/>
<path opacity="0.1" d="M159.525 170.246H124.829V177.357H159.525V170.246Z" fill="black"/>
<path opacity="0.1" d="M139.444 170.246H124.829V177.357H139.444V170.246Z" fill="black"/>
<path opacity="0.1" d="M124.829 171.27H155.713L124.829 172.138V171.27Z" fill="black"/>
<path opacity="0.1" d="M159.525 172.504L132.753 173.171H159.525V172.504Z" fill="black"/>
<path opacity="0.1" d="M126.236 174.496L139.435 173.948L158.839 174.496L139.435 174.798L126.236 174.496Z" fill="black"/>
<path opacity="0.1" d="M124.829 175.995H147.697L124.829 176.544V175.995Z" fill="black"/>
<path opacity="0.1" d="M159.47 176.544L144.197 176.827H159.525L159.47 176.544Z" fill="black"/>
<path d="M163.482 163.126H128.786V170.237H163.482V163.126Z" fill="white"/>
<path opacity="0.1" d="M163.482 163.126H128.786V170.237H163.482V163.126Z" fill="black"/>
<path opacity="0.1" d="M143.401 163.126H128.786V170.237H143.401V163.126Z" fill="black"/>
<path opacity="0.1" d="M128.786 164.149H159.671L128.786 165.027V164.149Z" fill="black"/>
<path opacity="0.1" d="M163.482 165.383L136.711 166.051H163.482V165.383Z" fill="black"/>
<path opacity="0.1" d="M130.203 167.376L143.402 166.836L162.806 167.376L143.402 167.677L130.203 167.376Z" fill="black"/>
<path opacity="0.1" d="M128.786 168.884H151.655L128.786 169.424V168.884Z" fill="black"/>
<path opacity="0.1" d="M163.437 169.424L148.163 169.707H163.482L163.437 169.424Z" fill="black"/>
<path d="M186.598 184.322L187.494 180.913H224.567L241.632 182.622L242.281 184.322H186.598Z" fill="#263238"/>
<path opacity="0.4" d="M224.567 180.913V184.322H186.598L187.494 180.913H224.567Z" fill="black"/>
<path d="M217.118 164.597C217.167 165.011 217.128 165.43 217.002 165.827C216.876 166.224 216.667 166.589 216.388 166.898C216.109 167.207 215.767 167.453 215.385 167.619C215.004 167.785 214.591 167.867 214.174 167.861H157.395C156.507 167.841 155.657 167.499 155.003 166.899C154.348 166.299 153.935 165.48 153.84 164.597L150.467 128.247C150.431 127.892 150.455 127.533 150.54 127.186C150.698 126.548 151.068 125.982 151.589 125.582C152.111 125.182 152.753 124.971 153.41 124.984H210.226C211.114 125.003 211.964 125.345 212.618 125.945C213.273 126.546 213.686 127.364 213.781 128.247L217.118 164.597Z" fill="#263238"/>
<path opacity="0.4" d="M213.973 167.861H157.395C156.507 167.841 155.657 167.5 155.003 166.899C154.348 166.299 153.935 165.481 153.84 164.598L150.467 128.247C150.431 127.892 150.455 127.533 150.54 127.187H207.118C208.006 127.206 208.857 127.548 209.511 128.148C210.165 128.749 210.578 129.567 210.674 130.45L214.046 166.801C214.083 167.156 214.058 167.514 213.973 167.861Z" fill="black"/>
<path d="M174.963 145.567H186.708L183.582 179.194L202.155 181.982V184.322H163.035V181.982L171.051 179.194L174.963 145.567Z" fill="#263238"/>
<path opacity="0.1" d="M186.708 145.567L178.006 183.792L171.051 183.582L174.963 145.567H186.708Z" fill="white"/>
<path d="M186.653 330.94H181.059L170.996 190.866H178.427L186.653 330.94Z" fill="#263238"/>
<path opacity="0.4" d="M186.662 330.94H181.059L171.489 197.831L170.996 191.095H178.427L178.829 197.831L186.662 330.94Z" fill="white"/>
<path opacity="0.2" d="M178.829 197.493H171.489L170.996 191.095H178.427L178.829 197.493Z" fill="black"/>
<path d="M227.748 330.94H222.154L221.24 190.866H228.662L227.748 330.94Z" fill="#263238"/>
<path opacity="0.5" d="M228.671 191.095L228.525 213.698L227.757 330.94H222.154L221.386 213.698L221.24 191.095H228.671Z" fill="white"/>
<path opacity="0.2" d="M228.671 191.095L228.525 213.945H221.386L221.24 191.095H228.671Z" fill="black"/>
<path d="M287.195 330.94H281.601L271.538 190.866H278.969L287.195 330.94Z" fill="#263238"/>
<path opacity="0.5" d="M287.204 330.94H281.601L272.032 197.831L271.538 191.095H278.969L279.371 197.831L287.204 330.94Z" fill="white"/>
<path opacity="0.2" d="M279.371 197.493H272.032L271.538 191.095H278.969L279.371 197.493Z" fill="black"/>
<path d="M122.598 330.94H117.004L125.231 190.866H132.662L122.598 330.94Z" fill="#263238"/>
<path opacity="0.5" d="M132.662 191.095L132.168 197.831L122.598 330.94H117.004L124.828 197.831L125.231 191.095H132.662Z" fill="white"/>
<path opacity="0.2" d="M125.231 191.095H132.662L132.168 197.493H124.829L125.231 191.095Z" fill="black"/>
<path d="M119.344 187.375H284.856V192.411C284.856 192.671 284.805 192.927 284.705 193.167C284.606 193.406 284.461 193.624 284.278 193.807C284.094 193.991 283.877 194.136 283.637 194.235C283.397 194.334 283.141 194.386 282.881 194.386H121.319C120.795 194.386 120.293 194.178 119.923 193.807C119.552 193.437 119.344 192.935 119.344 192.411V187.375Z" fill="#ECEFF1"/>
<path opacity="0.6" d="M119.344 187.375H284.856V192.411C284.856 192.671 284.805 192.927 284.705 193.167C284.606 193.406 284.461 193.624 284.278 193.807C284.094 193.991 283.877 194.136 283.637 194.235C283.397 194.334 283.141 194.386 282.881 194.386H121.319C120.795 194.386 120.293 194.178 119.923 193.807C119.552 193.437 119.344 192.935 119.344 192.411V187.375Z" fill="white"/>
<path opacity="0.2" d="M284.856 187.365H119.344V190.875H284.856V187.365Z" fill="black"/>
<path d="M288.329 188.289H115.871C115.348 188.289 114.845 188.081 114.475 187.71C114.105 187.34 113.897 186.838 113.897 186.314C113.897 185.79 114.105 185.287 114.475 184.915C114.845 184.544 115.347 184.333 115.871 184.331H288.329C288.854 184.333 289.356 184.544 289.726 184.915C290.096 185.287 290.303 185.79 290.303 186.314C290.303 186.838 290.095 187.34 289.725 187.71C289.355 188.081 288.853 188.289 288.329 188.289Z" fill="#ECEFF1"/>
<path opacity="0.6" d="M288.329 188.289H115.871C115.348 188.289 114.845 188.081 114.475 187.71C114.105 187.34 113.897 186.838 113.897 186.314C113.897 185.79 114.105 185.287 114.475 184.915C114.845 184.544 115.347 184.333 115.871 184.331H288.329C288.854 184.333 289.356 184.544 289.726 184.915C290.096 185.287 290.303 185.79 290.303 186.314C290.303 186.838 290.095 187.34 289.725 187.71C289.355 188.081 288.853 188.289 288.329 188.289Z" fill="white"/>
<path d="M247.527 178.235L249.648 175.054C249.857 174.741 250.139 174.485 250.471 174.308C250.803 174.131 251.173 174.039 251.549 174.039H254.236C254.459 174.04 254.681 174.074 254.894 174.14L264.482 177.046C265.027 177.209 265.491 177.571 265.78 178.061L267.16 180.373L247.527 178.235Z" fill="#ECEFF1"/>
<path opacity="0.2" d="M267.16 180.373L253.185 178.856L247.509 178.235L249.629 175.054C249.838 174.741 250.121 174.485 250.453 174.308C250.784 174.131 251.155 174.039 251.53 174.039H254.218C254.444 174.041 254.668 174.075 254.885 174.14L255.095 174.204L264.464 177.046C265.012 177.208 265.479 177.57 265.771 178.061L267.16 180.373Z" fill="black"/>
<path opacity="0.2" d="M267.16 180.373L253.185 178.856L255.095 174.204L264.464 177.046C265.012 177.208 265.479 177.57 265.771 178.061L267.16 180.373Z" fill="black"/>
<path d="M273.796 184.02V184.322H244.163L245.26 180.035C245.463 179.248 245.923 178.551 246.567 178.054C247.211 177.557 248.003 177.29 248.816 177.293H261.959C262.396 177.291 262.83 177.368 263.239 177.522L264.884 178.134L271.41 180.565C272.115 180.826 272.722 181.298 273.149 181.916C273.575 182.534 273.801 183.269 273.796 184.02Z" fill="#ECEFF1"/>
<path opacity="0.2" d="M273.796 184.021V184.322H261.63L262.279 179.688C262.321 179.401 262.427 179.127 262.588 178.885C262.75 178.644 262.963 178.442 263.213 178.294C263.463 178.146 263.742 178.055 264.032 178.029C264.321 178.003 264.612 178.042 264.884 178.143L271.41 180.575C272.113 180.835 272.719 181.306 273.146 181.922C273.573 182.538 273.8 183.271 273.796 184.021Z" fill="black"/>
<path d="M263.522 181.178L267.398 169.56C267.436 169.442 267.499 169.333 267.583 169.242C267.668 169.151 267.771 169.079 267.886 169.032C268.001 168.985 268.125 168.963 268.249 168.97C268.373 168.976 268.495 169.009 268.604 169.067C268.773 169.163 268.906 169.311 268.985 169.489C269.064 169.666 269.084 169.864 269.043 170.054L265.78 182.448C265.78 182.448 263.614 183.325 263.522 181.178Z" fill="#263238"/>
<path opacity="0.2" d="M247.527 183.362H245.809L246.138 181.671H247.856L247.527 183.362Z" fill="black"/>
<path opacity="0.2" d="M250.086 183.298H248.368L248.697 181.607H250.415L250.086 183.298Z" fill="black"/>
</svg>
