<svg width="152" height="30" viewBox="0 0 152 30" fill="none" xmlns="http://www.w3.org/2000/svg">
<path d="M7.92149 24.5916C6.7636 24.5916 5.67476 24.3525 4.65497 23.8745C3.6458 23.3965 2.77473 22.7326 2.04176 21.8827C1.30879 21.0329 0.782956 20.045 0.464272 18.919L4.63904 17.8036C4.77714 18.3453 5.02146 18.8127 5.37201 19.2058C5.73319 19.5988 6.14748 19.9069 6.61488 20.13C7.09291 20.3424 7.58156 20.4487 8.08083 20.4487C8.73945 20.4487 9.33963 20.2893 9.8814 19.9706C10.4338 19.6519 10.8693 19.2217 11.188 18.68C11.5173 18.1382 11.682 17.538 11.682 16.8794C11.682 16.2208 11.5173 15.6206 11.188 15.0788C10.8693 14.5371 10.4338 14.1068 9.8814 13.7881C9.33963 13.4695 8.73945 13.3101 8.08083 13.3101C7.2735 13.3101 6.61488 13.4482 6.10499 13.7244C5.59509 13.99 5.21267 14.2449 4.95772 14.4893L1.29285 13.3739L1.99396 1.16824H14.5183V5.21554H4.38409L5.91378 3.78146L5.43575 11.653L4.70278 10.7606C5.27641 10.2932 5.92971 9.95331 6.66268 9.74086C7.39566 9.5284 8.08083 9.42217 8.7182 9.42217C10.1629 9.42217 11.4323 9.74617 12.5265 10.3942C13.6313 11.0315 14.4917 11.9132 15.1078 13.0392C15.7346 14.1546 16.0479 15.4347 16.0479 16.8794C16.0479 18.3241 15.6708 19.6307 14.9166 20.7992C14.1624 21.9571 13.1692 22.8813 11.9369 23.5718C10.7047 24.2516 9.36619 24.5916 7.92149 24.5916ZM20.569 24.1135V19.7794H24.9031V24.1135H20.569ZM38.5847 24.5916C36.885 24.5916 35.3978 24.2357 34.1231 23.524C32.8483 22.8122 31.8551 21.819 31.1434 20.5443C30.4316 19.2695 30.0758 17.7823 30.0758 16.0827V9.19909C30.0758 7.49944 30.4316 6.01225 31.1434 4.73751C31.8551 3.46277 32.8483 2.46954 34.1231 1.75781C35.3978 1.04608 36.885 0.690218 38.5847 0.690218C40.2843 0.690218 41.7715 1.04608 43.0462 1.75781C44.321 2.46954 45.3142 3.46277 46.0259 4.73751C46.7377 6.01225 47.0935 7.49944 47.0935 9.19909V16.0827C47.0935 17.7823 46.7377 19.2695 46.0259 20.5443C45.3142 21.819 44.321 22.8122 43.0462 23.524C41.7715 24.2357 40.2843 24.5916 38.5847 24.5916ZM38.5847 20.4805C39.3495 20.4805 40.04 20.2999 40.6561 19.9388C41.2722 19.5776 41.7609 19.0889 42.1221 18.4728C42.4832 17.8567 42.6638 17.1662 42.6638 16.4014V8.84854C42.6638 8.0837 42.4832 7.39321 42.1221 6.77709C41.7609 6.16097 41.2722 5.67232 40.6561 5.31114C40.04 4.94997 39.3495 4.76938 38.5847 4.76938C37.8198 4.76938 37.1293 4.94997 36.5132 5.31114C35.8971 5.67232 35.4084 6.16097 35.0473 6.77709C34.6861 7.39321 34.5055 8.0837 34.5055 8.84854V16.4014C34.5055 17.1662 34.6861 17.8567 35.0473 18.4728C35.4084 19.0889 35.8971 19.5776 36.5132 19.9388C37.1293 20.2999 37.8198 20.4805 38.5847 20.4805Z" fill="white"/>
<path d="M54.3381 9.77273H57.0469L53.2227 24.1135H50.5139L54.3381 9.77273ZM63.9035 24.4123C63.1798 24.4123 62.4993 24.2629 61.8619 23.9641C61.2312 23.6654 60.6868 23.2504 60.2287 22.7193C59.7705 22.1881 59.4419 21.5707 59.2427 20.8669L61.852 20.1698C61.9383 20.5084 62.091 20.8005 62.3101 21.0462C62.5358 21.2918 62.7947 21.4844 63.0869 21.6238C63.3856 21.7566 63.691 21.823 64.0031 21.823C64.4147 21.823 64.7898 21.7234 65.1284 21.5242C65.4737 21.325 65.7459 21.0561 65.9451 20.7175C66.1509 20.3789 66.2538 20.0038 66.2538 19.5922C66.2538 19.1806 66.1509 18.8054 65.9451 18.4668C65.7459 18.1282 65.4737 17.8593 65.1284 17.6602C64.7898 17.461 64.4147 17.3614 64.0031 17.3614C63.4985 17.3614 63.0869 17.4477 62.7682 17.6203C62.4495 17.7863 62.2105 17.9457 62.0511 18.0984L59.7606 17.4012L60.1988 9.77273H68.0265V12.3023H61.6926L62.6487 11.406L62.3499 16.3257L61.8918 15.768C62.2503 15.4759 62.6586 15.2634 63.1167 15.1306C63.5748 14.9978 64.0031 14.9314 64.4014 14.9314C65.3044 14.9314 66.0978 15.1339 66.7816 15.5389C67.4721 15.9373 68.0099 16.4883 68.3949 17.1921C68.7867 17.8892 68.9825 18.6893 68.9825 19.5922C68.9825 20.4951 68.7468 21.3118 68.2754 22.0421C67.804 22.7658 67.1833 23.3434 66.4131 23.7749C65.643 24.1998 64.8064 24.4123 63.9035 24.4123ZM71.8082 24.1135V21.4047H74.517V24.1135H71.8082ZM83.068 24.4123C82.0057 24.4123 81.0762 24.1899 80.2795 23.745C79.4828 23.3002 78.862 22.6794 78.4172 21.8827C77.9723 21.086 77.7499 20.1565 77.7499 19.0942V14.792C77.7499 13.7297 77.9723 12.8002 78.4172 12.0035C78.862 11.2068 79.4828 10.586 80.2795 10.1412C81.0762 9.69638 82.0057 9.47396 83.068 9.47396C84.1302 9.47396 85.0597 9.69638 85.8564 10.1412C86.6532 10.586 87.2739 11.2068 87.7188 12.0035C88.1636 12.8002 88.386 13.7297 88.386 14.792V19.0942C88.386 20.1565 88.1636 21.086 87.7188 21.8827C87.2739 22.6794 86.6532 23.3002 85.8564 23.745C85.0597 24.1899 84.1302 24.4123 83.068 24.4123ZM83.068 21.8429C83.546 21.8429 83.9775 21.73 84.3626 21.5043C84.7477 21.2786 85.0531 20.9732 85.2788 20.5881C85.5046 20.203 85.6174 19.7715 85.6174 19.2934V14.5729C85.6174 14.0949 85.5046 13.6633 85.2788 13.2783C85.0531 12.8932 84.7477 12.5878 84.3626 12.362C83.9775 12.1363 83.546 12.0234 83.068 12.0234C82.5899 12.0234 82.1584 12.1363 81.7733 12.362C81.3882 12.5878 81.0828 12.8932 80.8571 13.2783C80.6313 13.6633 80.5185 14.0949 80.5185 14.5729V19.2934C80.5185 19.7715 80.6313 20.203 80.8571 20.5881C81.0828 20.9732 81.3882 21.2786 81.7733 21.5043C82.1584 21.73 82.5899 21.8429 83.068 21.8429ZM95.1585 24.1135V13.3579H97.5486V15.9871L97.2897 15.6485C97.4291 15.2767 97.615 14.9381 97.8474 14.6327C98.0798 14.3273 98.3653 14.075 98.7039 13.8758C98.9628 13.7164 99.245 13.5936 99.5504 13.5073C99.8558 13.4144 100.171 13.3579 100.496 13.338C100.822 13.3115 101.147 13.3181 101.472 13.3579V15.8875C101.174 15.7945 100.825 15.7647 100.427 15.7979C100.035 15.8244 99.6798 15.914 99.3612 16.0667C99.0425 16.2128 98.7736 16.4087 98.5545 16.6543C98.3354 16.8933 98.1694 17.1788 98.0565 17.5108C97.9437 17.8361 97.8872 18.2046 97.8872 18.6162V24.1135H95.1585ZM106.141 24.4123C105.37 24.4123 104.716 24.2662 104.179 23.9741C103.647 23.6753 103.242 23.2803 102.964 22.789C102.691 22.291 102.555 21.7433 102.555 21.1458C102.555 20.6478 102.632 20.193 102.784 19.7814C102.937 19.3698 103.183 19.0079 103.521 18.6959C103.867 18.3772 104.328 18.1116 104.906 17.8992C105.304 17.7531 105.779 17.6237 106.33 17.5108C106.881 17.3979 107.505 17.2917 108.202 17.1921C108.899 17.0859 109.666 16.9697 110.503 16.8435L109.527 17.3813C109.527 16.7439 109.374 16.2759 109.068 15.9771C108.763 15.6783 108.252 15.529 107.535 15.529C107.136 15.529 106.721 15.6252 106.29 15.8178C105.858 16.0103 105.556 16.3522 105.384 16.8435L102.934 16.0667C103.206 15.1771 103.717 14.4534 104.467 13.8957C105.218 13.338 106.24 13.0592 107.535 13.0592C108.484 13.0592 109.327 13.2052 110.064 13.4974C110.801 13.7895 111.359 14.2941 111.737 15.0111C111.95 15.4095 112.076 15.8078 112.116 16.2062C112.156 16.6045 112.176 17.0494 112.176 17.5407V24.1135H109.805V21.9027L110.144 22.3608C109.619 23.0844 109.052 23.6089 108.441 23.9343C107.837 24.2529 107.07 24.4123 106.141 24.4123ZM106.718 22.2811C107.216 22.2811 107.634 22.1948 107.973 22.0222C108.318 21.8429 108.59 21.6404 108.79 21.4147C108.995 21.1889 109.135 20.9997 109.208 20.847C109.347 20.5549 109.427 20.2163 109.447 19.8312C109.473 19.4395 109.487 19.1142 109.487 18.8552L110.283 19.0544C109.48 19.1872 108.829 19.3001 108.331 19.393C107.834 19.4793 107.432 19.559 107.126 19.632C106.821 19.7051 106.552 19.7847 106.32 19.871C106.054 19.9773 105.838 20.0935 105.672 20.2196C105.513 20.3391 105.394 20.4719 105.314 20.618C105.241 20.764 105.204 20.9267 105.204 21.1059C105.204 21.3516 105.264 21.5641 105.384 21.7433C105.51 21.9159 105.686 22.0487 105.911 22.1417C106.137 22.2346 106.406 22.2811 106.718 22.2811ZM121.218 24.1135C120.475 24.2529 119.745 24.3127 119.027 24.2928C118.317 24.2795 117.68 24.1567 117.115 23.9243C116.558 23.6853 116.133 23.3035 115.841 22.779C115.575 22.2877 115.436 21.7898 115.422 21.2852C115.409 20.774 115.402 20.1964 115.402 19.5524V10.3703H118.111V19.393C118.111 19.8113 118.115 20.1897 118.121 20.5283C118.134 20.8603 118.204 21.1259 118.33 21.325C118.569 21.7035 118.951 21.9093 119.476 21.9425C120 21.9757 120.581 21.9491 121.218 21.8628V24.1135ZM113.57 15.4493V13.3579H121.218V15.4493H113.57ZM123.814 11.8641V9.47396H126.523V11.8641H123.814ZM123.814 24.1135V13.3579H126.523V24.1135H123.814ZM136.839 24.1135V19.0345C136.839 18.7888 136.825 18.4768 136.799 18.0984C136.772 17.7133 136.689 17.3282 136.55 16.9431C136.41 16.558 136.181 16.236 135.863 15.9771C135.551 15.7182 135.106 15.5887 134.528 15.5887C134.296 15.5887 134.047 15.6252 133.781 15.6983C133.516 15.7713 133.267 15.914 133.034 16.1265C132.802 16.3323 132.609 16.6377 132.457 17.0427C132.311 17.4477 132.238 17.9855 132.238 18.6561L130.684 17.9191C130.684 17.0693 130.857 16.2726 131.202 15.529C131.547 14.7854 132.065 14.1845 132.755 13.7264C133.453 13.2683 134.329 13.0392 135.385 13.0392C136.228 13.0392 136.915 13.182 137.446 13.4675C137.977 13.753 138.389 14.1148 138.681 14.553C138.98 14.9912 139.192 15.4493 139.318 15.9273C139.445 16.3987 139.521 16.8303 139.547 17.222C139.574 17.6137 139.587 17.8992 139.587 18.0784V24.1135H136.839ZM129.489 24.1135V13.3579H131.899V16.9232H132.238V24.1135H129.489ZM146.772 29.1926C146.162 29.1926 145.581 29.093 145.03 28.8938C144.479 28.7013 143.984 28.429 143.546 28.0772C143.114 27.7319 142.762 27.3269 142.49 26.8622L145 25.6472C145.172 25.9659 145.418 26.2082 145.737 26.3742C146.062 26.5402 146.414 26.6232 146.792 26.6232C147.197 26.6232 147.579 26.5535 147.938 26.414C148.296 26.2812 148.582 26.0787 148.794 25.8065C149.013 25.541 149.116 25.209 149.103 24.8106V21.6836H149.441V13.3579H151.812V24.8505C151.812 25.1161 151.798 25.365 151.772 25.5974C151.752 25.8364 151.712 26.0721 151.652 26.3045C151.48 26.9618 151.158 27.5029 150.686 27.9278C150.222 28.3527 149.651 28.6681 148.973 28.8739C148.296 29.0863 147.563 29.1926 146.772 29.1926ZM146.533 24.4123C145.544 24.4123 144.678 24.1633 143.934 23.6654C143.191 23.1674 142.61 22.4902 142.191 21.6338C141.78 20.7773 141.574 19.8113 141.574 18.7357C141.574 17.6402 141.783 16.6676 142.201 15.8178C142.626 14.9613 143.22 14.2874 143.984 13.7961C144.747 13.3048 145.644 13.0592 146.673 13.0592C147.695 13.0592 148.555 13.3081 149.252 13.8061C149.949 14.304 150.477 14.9812 150.836 15.8377C151.194 16.6942 151.373 17.6602 151.373 18.7357C151.373 19.8113 151.191 20.7773 150.826 21.6338C150.467 22.4902 149.929 23.1674 149.212 23.6654C148.495 24.1633 147.602 24.4123 146.533 24.4123ZM146.972 22.0022C147.576 22.0022 148.057 21.8661 148.416 21.5939C148.781 21.3217 149.043 20.94 149.202 20.4487C149.362 19.9573 149.441 19.3864 149.441 18.7357C149.441 18.0851 149.362 17.5141 149.202 17.0228C149.043 16.5315 148.787 16.1497 148.436 15.8775C148.09 15.6053 147.636 15.4692 147.071 15.4692C146.467 15.4692 145.969 15.6186 145.577 15.9174C145.192 16.2095 144.907 16.6045 144.721 17.1025C144.535 17.5938 144.442 18.1382 144.442 18.7357C144.442 19.3399 144.532 19.891 144.711 20.3889C144.89 20.8802 145.166 21.2719 145.538 21.5641C145.909 21.8562 146.387 22.0022 146.972 22.0022Z" fill="#B9C8F3"/>
</svg>
