<svg width="141" height="29" viewBox="0 0 141 29" fill="none" xmlns="http://www.w3.org/2000/svg">
<path d="M13.7612 3.09135C14.0592 2.17427 15.3566 2.17426 15.6546 3.09134L17.6132 9.11926C17.7465 9.52939 18.1287 9.80707 18.5599 9.80707H24.898C25.8623 9.80707 26.2632 11.041 25.4831 11.6078L20.3555 15.3332C20.0066 15.5867 19.8606 16.036 19.9939 16.4461L21.9524 22.4741C22.2504 23.3911 21.2008 24.1537 20.4207 23.587L15.293 19.8615C14.9441 19.608 14.4717 19.608 14.1228 19.8615L8.99519 23.587C8.21507 24.1537 7.16543 23.3911 7.46341 22.4741L9.422 16.4461C9.55526 16.036 9.40928 15.5867 9.0604 15.3332L3.93274 11.6078C3.15263 11.041 3.55355 9.80707 4.51783 9.80707H10.856C11.2872 9.80707 11.6694 9.52939 11.8026 9.11926L13.7612 3.09135Z" fill="white"/>
<path d="M41.6326 3.09135C41.9306 2.17427 43.228 2.17426 43.526 3.09134L45.4845 9.11926C45.6178 9.52939 46 9.80707 46.4312 9.80707H52.7694C53.7336 9.80707 54.1346 11.041 53.3545 11.6078L48.2268 15.3332C47.8779 15.5867 47.7319 16.036 47.8652 16.4461L49.8238 22.4741C50.1218 23.3911 49.0721 24.1537 48.292 23.587L43.1644 19.8615C42.8155 19.608 42.3431 19.608 41.9942 19.8615L36.8665 23.587C36.0864 24.1537 35.0368 23.3911 35.3348 22.4741L37.2933 16.4461C37.4266 16.036 37.2806 15.5867 36.9317 15.3332L31.8041 11.6078C31.024 11.041 31.4249 9.80707 32.3892 9.80707H38.7273C39.1585 9.80707 39.5407 9.52939 39.674 9.11926L41.6326 3.09135Z" fill="white"/>
<path d="M69.5042 3.09135C69.8021 2.17427 71.0996 2.17426 71.3975 3.09134L73.3561 9.11926C73.4894 9.52939 73.8716 9.80707 74.3028 9.80707H80.6409C81.6052 9.80707 82.0061 11.041 81.226 11.6078L76.0984 15.3332C75.7495 15.5867 75.6035 16.036 75.7368 16.4461L77.6954 22.4741C77.9933 23.3911 76.9437 24.1537 76.1636 23.587L71.0359 19.8615C70.6871 19.608 70.2146 19.608 69.8658 19.8615L64.7381 23.587C63.958 24.1537 62.9084 23.3911 63.2063 22.4741L65.1649 16.4461C65.2982 16.036 65.1522 15.5867 64.8033 15.3332L59.6757 11.6078C58.8955 11.041 59.2965 9.80707 60.2607 9.80707H66.5989C67.0301 9.80707 67.4123 9.52939 67.5456 9.11926L69.5042 3.09135Z" fill="white"/>
<path d="M97.3755 3.09135C97.6735 2.17427 98.9709 2.17426 99.2689 3.09134L101.227 9.11926C101.361 9.52939 101.743 9.80707 102.174 9.80707H108.512C109.477 9.80707 109.877 11.041 109.097 11.6078L103.97 15.3332C103.621 15.5867 103.475 16.036 103.608 16.4461L105.567 22.4741C105.865 23.3911 104.815 24.1537 104.035 23.587L98.9073 19.8615C98.5584 19.608 98.086 19.608 97.7371 19.8615L92.6094 23.587C91.8293 24.1537 90.7797 23.3911 91.0777 22.4741L93.0363 16.4461C93.1695 16.036 93.0235 15.5867 92.6747 15.3332L87.547 11.6078C86.7669 11.041 87.1678 9.80707 88.1321 9.80707H94.4702C94.9015 9.80707 95.2836 9.52939 95.4169 9.11926L97.3755 3.09135Z" fill="white"/>
<path d="M125.247 3.09135C125.545 2.17427 126.842 2.17426 127.14 3.09134L129.099 9.11926C129.232 9.52939 129.614 9.80707 130.045 9.80707H136.384C137.348 9.80707 137.749 11.041 136.969 11.6078L131.841 15.3332C131.492 15.5867 131.346 16.036 131.479 16.4461L133.438 22.4741C133.736 23.3911 132.686 24.1537 131.906 23.587L126.779 19.8615C126.43 19.608 125.957 19.608 125.608 19.8615L120.481 23.587C119.701 24.1537 118.651 23.3911 118.949 22.4741L120.908 16.4461C121.041 16.036 120.895 15.5867 120.546 15.3332L115.418 11.6078C114.638 11.041 115.039 9.80707 116.003 9.80707H122.342C122.773 9.80707 123.155 9.52939 123.288 9.11926L125.247 3.09135Z" fill="white"/>
</svg>
